<svg xmlns="http://www.w3.org/2000/svg" width="152.4" height="59" viewBox="0 0 152.4 59">
    <defs>
        <clipPath id="prefix__clip-path">
            <path id="prefix__Path_2789" d="M217.952 212.026a19.426 19.426 0 1 0-19.426 19.426 19.427 19.427 0 0 0 19.426-19.426z" data-name="Path 2789" transform="translate(-179.1 -192.6)"/>
        </clipPath>
        <style>
            .prefix__cls-1{fill:#fff}.prefix__cls-2{fill:none}.prefix__cls-3{fill:#009eda}.prefix__cls-4{clip-path:url(#prefix__clip-path)}
        </style>
    </defs>
    <g id="prefix__Group_1127" data-name="Group 1127" transform="translate(-274 -232)">
        <circle id="prefix__Oval_3" cx="29.5" cy="29.5" r="29.5" class="prefix__cls-1" data-name="Oval 3" transform="translate(274 232)"/>
        <g id="prefix__star" transform="translate(340 253)">
            <path id="prefix__Path_2773" d="M0 0h17.4v17.4H0z" class="prefix__cls-2" data-name="Path 2773"/>
            <path id="prefix__Path_2774" d="M9.25 13.071l4.481 2.7-1.189-5.1L16.5 7.249l-5.213-.442L9.25 2 7.213 6.807 2 7.249l3.959 3.429-1.189 5.1z" class="prefix__cls-3" data-name="Path 2774" transform="translate(-.55 -.55)"/>
            <path id="prefix__Path_2775" d="M0 0h17.4v17.4H0z" class="prefix__cls-2" data-name="Path 2775"/>
        </g>
        <g id="prefix__star-2" data-name="star" transform="translate(357 253)">
            <path id="prefix__Path_2773-2" d="M0 0h17.4v17.4H0z" class="prefix__cls-2" data-name="Path 2773"/>
            <path id="prefix__Path_2774-2" d="M9.25 13.071l4.481 2.7-1.189-5.1L16.5 7.249l-5.213-.442L9.25 2 7.213 6.807 2 7.249l3.959 3.429-1.189 5.1z" class="prefix__cls-3" data-name="Path 2774" transform="translate(-.55 -.55)"/>
            <path id="prefix__Path_2775-2" d="M0 0h17.4v17.4H0z" class="prefix__cls-2" data-name="Path 2775"/>
        </g>
        <g id="prefix__star-3" data-name="star" transform="translate(375 253)">
            <path id="prefix__Path_2773-3" d="M0 0h17.4v17.4H0z" class="prefix__cls-2" data-name="Path 2773"/>
            <path id="prefix__Path_2774-3" d="M9.25 13.071l4.481 2.7-1.189-5.1L16.5 7.249l-5.213-.442L9.25 2 7.213 6.807 2 7.249l3.959 3.429-1.189 5.1z" class="prefix__cls-3" data-name="Path 2774" transform="translate(-.55 -.55)"/>
            <path id="prefix__Path_2775-3" d="M0 0h17.4v17.4H0z" class="prefix__cls-2" data-name="Path 2775"/>
        </g>
        <g id="prefix__star-4" data-name="star" transform="translate(392 253)">
            <path id="prefix__Path_2773-4" d="M0 0h17.4v17.4H0z" class="prefix__cls-2" data-name="Path 2773"/>
            <path id="prefix__Path_2774-4" d="M9.25 13.071l4.481 2.7-1.189-5.1L16.5 7.249l-5.213-.442L9.25 2 7.213 6.807 2 7.249l3.959 3.429-1.189 5.1z" class="prefix__cls-3" data-name="Path 2774" transform="translate(-.55 -.55)"/>
            <path id="prefix__Path_2775-4" d="M0 0h17.4v17.4H0z" class="prefix__cls-2" data-name="Path 2775"/>
        </g>
        <g id="prefix__star-5" data-name="star" transform="translate(409 253)">
            <path id="prefix__Path_2773-5" d="M0 0h17.4v17.4H0z" class="prefix__cls-2" data-name="Path 2773"/>
            <path id="prefix__Path_2774-5" d="M9.25 13.071l4.481 2.7-1.189-5.1L16.5 7.249l-5.213-.442L9.25 2 7.213 6.807 2 7.249l3.959 3.429-1.189 5.1z" class="prefix__cls-3" data-name="Path 2774" transform="translate(-.55 -.55)"/>
            <path id="prefix__Path_2775-5" d="M0 0h17.4v17.4H0z" class="prefix__cls-2" data-name="Path 2775"/>
        </g>
        <g id="prefix__agency-spotter" transform="translate(104.9 49.4)">
            <g id="prefix__Group_1095" class="prefix__cls-4" data-name="Group 1095" transform="translate(179.1 192.6)">
                <path id="prefix__Path_2788" d="M217.952 212.026a19.426 19.426 0 1 0-19.426 19.426 19.427 19.427 0 0 0 19.426-19.426z" class="prefix__cls-3" data-name="Path 2788" transform="translate(-179.1 -192.6)"/>
            </g>
            <g id="prefix__Group_1102" class="prefix__cls-4" data-name="Group 1102" transform="translate(179.1 192.6)">
                <g id="prefix__Group_1096" data-name="Group 1096" transform="translate(-.29 15.128)">
                    <path id="prefix__Path_2790" d="M183.173 291.057v-.87a2.568 2.568 0 0 1-2.166 1.057 2.532 2.532 0 0 1-2.507-2.712 2.464 2.464 0 0 1 2.507-2.678 2.562 2.562 0 0 1 2.166 1.023v-1.211a1.428 1.428 0 0 0-1.586-1.552 2.77 2.77 0 0 0-2.047.955l-.665-1.177a4.152 4.152 0 0 1 3.019-1.194c1.706 0 2.985.8 2.985 2.78v5.594h-1.706zm0-1.825V287.9a1.684 1.684 0 0 0-1.552-.87 1.522 1.522 0 0 0 0 3.036 1.654 1.654 0 0 0 1.552-.834z" class="prefix__cls-1" data-name="Path 2790" transform="translate(-178.312 -282.461)"/>
                    <path id="prefix__Path_2791" d="M180.095 290.271a2.709 2.709 0 0 1-2.695-2.9 2.667 2.667 0 0 1 2.695-2.865 2.871 2.871 0 0 1 1.978.716v-.733a1.242 1.242 0 0 0-1.4-1.364 2.6 2.6 0 0 0-1.91.887l-.171.171-.853-1.518.1-.1a4.322 4.322 0 0 1 3.138-1.262c2.013 0 3.155 1.074 3.155 2.951v5.782h-2.064v-.546a2.784 2.784 0 0 1-1.973.781zm0-5.372a2.274 2.274 0 0 0-2.32 2.49 2.343 2.343 0 0 0 2.32 2.524 2.426 2.426 0 0 0 2.013-.989l.341-.495v1.262h1.33v-5.406c0-2.132-1.518-2.592-2.8-2.592a4 4 0 0 0-2.78 1.057l.478.853a2.862 2.862 0 0 1 2-.836 1.614 1.614 0 0 1 1.774 1.74v1.808l-.341-.495a2.421 2.421 0 0 0-2.015-.92zm.6 4.213a1.709 1.709 0 0 1 0-3.411 1.891 1.891 0 0 1 1.723.955l.017.034v1.433l-.017.034a1.859 1.859 0 0 1-1.726.954zm0-3.053a1.335 1.335 0 0 0 0 2.661 1.483 1.483 0 0 0 1.364-.716v-1.245a1.518 1.518 0 0 0-1.367-.701z" class="prefix__cls-1" data-name="Path 2791" transform="translate(-177.4 -281.3)"/>
                </g>
                <g id="prefix__Group_1097" data-name="Group 1097" transform="translate(6.396 15.179)">
                    <path id="prefix__Path_2792" d="M217.941 293.225l.716-1.313a2.691 2.691 0 0 0 2.115.921 1.8 1.8 0 0 0 1.944-2v-1.177a2.484 2.484 0 0 1-2.115 1.313c-1.842 0-3-1.535-3-4.179 0-2.592 1.143-4.2 3-4.2a2.436 2.436 0 0 1 2.115 1.3v-1.09h1.671v8.033c0 2.661-1.757 3.445-3.53 3.445a3.942 3.942 0 0 1-2.916-1.053zm4.775-4.861v-3.155a1.942 1.942 0 0 0-1.6-1.109c-1.177 0-1.757 1.126-1.757 2.712 0 1.569.58 2.695 1.757 2.695a2.027 2.027 0 0 0 1.601-1.142z" class="prefix__cls-1" data-name="Path 2792" transform="translate(-217.429 -282.429)"/>
                    <path id="prefix__Path_2793" d="M220.028 293.641a4.127 4.127 0 0 1-3.036-1.092l-.1-.1.9-1.671.171.2a2.518 2.518 0 0 0 1.978.853 1.627 1.627 0 0 0 1.757-1.808v-.614a2.561 2.561 0 0 1-1.927.938c-1.961 0-3.172-1.671-3.172-4.366s1.211-4.383 3.172-4.383a2.5 2.5 0 0 1 1.927.9v-.7h2.047v8.221c.001 2.292-1.345 3.622-3.717 3.622zm-2.678-1.279a3.754 3.754 0 0 0 2.678.9 3 3 0 0 0 3.343-3.258v-7.845h-1.313v1.6l-.341-.6a2.261 2.261 0 0 0-1.961-1.211c-1.74 0-2.814 1.535-2.814 4.008 0 2.507 1.057 3.991 2.814 3.991a2.343 2.343 0 0 0 1.961-1.228l.341-.58v1.859a1.986 1.986 0 0 1-2.132 2.183 2.931 2.931 0 0 1-2.064-.784zm2.934-3.53c-1.211 0-1.944-1.074-1.944-2.882s.733-2.9 1.944-2.9a2.136 2.136 0 0 1 1.774 1.228l.017.085-.017 3.24a2.136 2.136 0 0 1-1.774 1.228zm0-5.389c-.989 0-1.569.938-1.569 2.524 0 .75.153 2.507 1.569 2.507a1.7 1.7 0 0 0 1.416-.972v-3.07a1.711 1.711 0 0 0-1.416-.99z" class="prefix__cls-1" data-name="Path 2793" transform="translate(-216.6 -281.6)"/>
                </g>
                <g id="prefix__Group_1098" data-name="Group 1098" transform="translate(13.491 15.145)">
                    <path id="prefix__Path_2794" d="M259.3 286.881c0-2.371 1.33-4.281 3.513-4.281 2.234 0 3.394 1.876 3.394 4.332v.512h-5.2a2.183 2.183 0 0 0 2.149 2.354 2.479 2.479 0 0 0 1.859-.887l.819 1.023a3.753 3.753 0 0 1-2.848 1.245c-2.253-.017-3.686-1.779-3.686-4.298zm3.5-2.9c-1.279 0-1.774 1.245-1.808 2.251h3.6c-.005-1.023-.465-2.251-1.792-2.251z" class="prefix__cls-1" data-name="Path 2794" transform="translate(-259.112 -282.395)"/>
                    <path id="prefix__Path_2795" d="M262.072 290.354c-2.319 0-3.872-1.808-3.872-4.486 0-2.626 1.518-4.468 3.7-4.468s3.582 1.774 3.582 4.52v.7h-5.2a1.928 1.928 0 0 0 1.944 1.978 2.307 2.307 0 0 0 1.723-.819l.154-.171 1.057 1.313-.1.119a3.9 3.9 0 0 1-2.988 1.314zm-.171-8.579c-1.961 0-3.326 1.688-3.326 4.093 0 2.456 1.416 4.11 3.5 4.11a3.525 3.525 0 0 0 2.592-1.074l-.58-.716a2.657 2.657 0 0 1-1.842.785 2.348 2.348 0 0 1-2.337-2.524l-.017-.188h5.219v-.324c.014-2.013-.838-4.162-3.21-4.162zm1.978 3.65h-3.974v-.188c.034-1.211.682-2.422 2-2.422 1.433 0 1.961 1.313 1.978 2.439zm-3.6-.375h3.206c-.051-.563-.29-1.876-1.6-1.876-1.059 0-1.519.972-1.604 1.876z" class="prefix__cls-1" data-name="Path 2795" transform="translate(-258.2 -281.4)"/>
                </g>
                <g id="prefix__Group_1099" data-name="Group 1099" transform="translate(20.688 15.162)">
                    <path id="prefix__Path_2796" d="M306.02 290.891v-5.577c0-.972-.443-1.313-1.16-1.313a2.143 2.143 0 0 0-1.688 1.126v5.748H301.5V282.7h1.671v1.1a3.071 3.071 0 0 1 2.4-1.3 1.954 1.954 0 0 1 2.149 2.234v6.14h-1.7z" class="prefix__cls-1" data-name="Path 2796" transform="translate(-301.312 -282.329)"/>
                    <path id="prefix__Path_2797" d="M306.983 290.232h-2.047v-5.748c0-.8-.29-1.143-.989-1.143a1.911 1.911 0 0 0-1.5 1.006v5.884H300.4v-8.545h2.047v.785a3.225 3.225 0 0 1 2.217-.972 2.132 2.132 0 0 1 2.336 2.423v6.31zm-1.688-.358h1.33v-5.952c0-1.381-.648-2.047-1.961-2.047a2.9 2.9 0 0 0-2.251 1.228l-.341.478v-1.5h-1.313v7.794h1.313v-5.611l.017-.051a2.313 2.313 0 0 1 1.859-1.228c.9 0 1.347.512 1.347 1.5z" class="prefix__cls-1" data-name="Path 2797" transform="translate(-300.4 -281.5)"/>
                </g>
                <g id="prefix__Group_1100" data-name="Group 1100" transform="translate(27.237 15.145)">
                    <path id="prefix__Path_2798" d="M339.8 286.881c0-2.456 1.4-4.281 3.582-4.281a3.112 3.112 0 0 1 2.507 1.092l-.853 1.143a1.768 1.768 0 0 0-1.467-.767c-1.279 0-2.03 1.228-2.03 2.8 0 1.552.75 2.814 2.03 2.814a1.79 1.79 0 0 0 1.467-.767l.853 1.143a2.99 2.99 0 0 1-2.507 1.092c-2.166.012-3.582-1.813-3.582-4.269z" class="prefix__cls-1" data-name="Path 2798" transform="translate(-339.629 -282.395)"/>
                    <path id="prefix__Path_2799" d="M342.569 290.354c-2.217 0-3.769-1.842-3.769-4.486 0-2.626 1.552-4.468 3.769-4.468a3.181 3.181 0 0 1 2.644 1.177l.085.1-1.074 1.467-.154-.188a1.554 1.554 0 0 0-1.33-.682c-1.279 0-1.842 1.313-1.842 2.609 0 1.313.563 2.626 1.842 2.626a1.614 1.614 0 0 0 1.33-.7l.154-.188 1.074 1.45-.085.1a3.165 3.165 0 0 1-2.644 1.183zm0-8.579c-2 0-3.394 1.688-3.394 4.093 0 2.422 1.4 4.11 3.394 4.11a2.846 2.846 0 0 0 2.268-.921l-.631-.853a1.9 1.9 0 0 1-1.467.648c-1.3 0-2.217-1.228-2.217-2.985 0-1.774.887-2.968 2.217-2.968a1.9 1.9 0 0 1 1.467.648l.614-.836a2.869 2.869 0 0 0-2.251-.936z" class="prefix__cls-1" data-name="Path 2799" transform="translate(-338.8 -281.4)"/>
                </g>
                <g id="prefix__Group_1101" data-name="Group 1101" transform="translate(31.791 15.35)">
                    <path id="prefix__Path_2800" d="M367.955 293.675a1.143 1.143 0 0 0 .529.119.885.885 0 0 0 .938-.7l.358-.989L367 283.8h1.808l1.825 6.14 1.842-6.14h1.791l-3.24 9.687a2.286 2.286 0 0 1-2.4 1.791 3.883 3.883 0 0 1-.921-.119z" class="prefix__cls-1" data-name="Path 2800" transform="translate(-366.744 -283.595)"/>
                    <path id="prefix__Path_2801" d="M367.376 294.47a3.82 3.82 0 0 1-.972-.136l-.154-.051.324-1.91.239.136a1.117 1.117 0 0 0 .426.085c.358 0 .58-.085.75-.563l.341-.921-2.83-8.51h2.2l1.688 5.679 1.706-5.679h2.183l-3.326 9.943a2.475 2.475 0 0 1-2.575 1.927zm-.7-.443a5.1 5.1 0 0 0 .7.068 2.117 2.117 0 0 0 2.234-1.671l3.172-9.449h-1.4l-1.978 6.6-1.961-6.6h-1.416l2.712 8.135-.375 1.04a1.076 1.076 0 0 1-1.109.819 1.521 1.521 0 0 1-.375-.051z" class="prefix__cls-1" data-name="Path 2801" transform="translate(-365.5 -282.6)"/>
                </g>
            </g>
        </g>
    </g>
</svg>
