<svg xmlns="http://www.w3.org/2000/svg" width="154.4" height="59" viewBox="0 0 154.4 59">
    <defs>
        <style>
            .prefix__cls-2{fill:none}.prefix__cls-3{fill:#f6c644}
        </style>
    </defs>
    <g id="prefix__Group_1131" data-name="Group 1131" transform="translate(-536 -45)">
        <circle id="prefix__Oval_3" cx="29.5" cy="29.5" r="29.5" data-name="Oval 3" transform="translate(536 45)" style="fill:#fff"/>
        <g id="prefix__star" transform="translate(604 66)">
            <path id="prefix__Path_2773" d="M0 0h17.4v17.4H0z" class="prefix__cls-2" data-name="Path 2773"/>
            <path id="prefix__Path_2774" d="M9.25 13.071l4.481 2.7-1.189-5.1L16.5 7.249l-5.213-.442L9.25 2 7.213 6.807 2 7.249l3.959 3.429-1.189 5.1z" class="prefix__cls-3" data-name="Path 2774" transform="translate(-.55 -.55)"/>
            <path id="prefix__Path_2775" d="M0 0h17.4v17.4H0z" class="prefix__cls-2" data-name="Path 2775"/>
        </g>
        <g id="prefix__star-2" data-name="star" transform="translate(621 66)">
            <path id="prefix__Path_2773-2" d="M0 0h17.4v17.4H0z" class="prefix__cls-2" data-name="Path 2773"/>
            <path id="prefix__Path_2774-2" d="M9.25 13.071l4.481 2.7-1.189-5.1L16.5 7.249l-5.213-.442L9.25 2 7.213 6.807 2 7.249l3.959 3.429-1.189 5.1z" class="prefix__cls-3" data-name="Path 2774" transform="translate(-.55 -.55)"/>
            <path id="prefix__Path_2775-2" d="M0 0h17.4v17.4H0z" class="prefix__cls-2" data-name="Path 2775"/>
        </g>
        <g id="prefix__star-3" data-name="star" transform="translate(639 66)">
            <path id="prefix__Path_2773-3" d="M0 0h17.4v17.4H0z" class="prefix__cls-2" data-name="Path 2773"/>
            <path id="prefix__Path_2774-3" d="M9.25 13.071l4.481 2.7-1.189-5.1L16.5 7.249l-5.213-.442L9.25 2 7.213 6.807 2 7.249l3.959 3.429-1.189 5.1z" class="prefix__cls-3" data-name="Path 2774" transform="translate(-.55 -.55)"/>
            <path id="prefix__Path_2775-3" d="M0 0h17.4v17.4H0z" class="prefix__cls-2" data-name="Path 2775"/>
        </g>
        <g id="prefix__star-4" data-name="star" transform="translate(656 66)">
            <path id="prefix__Path_2773-4" d="M0 0h17.4v17.4H0z" class="prefix__cls-2" data-name="Path 2773"/>
            <path id="prefix__Path_2774-4" d="M9.25 13.071l4.481 2.7-1.189-5.1L16.5 7.249l-5.213-.442L9.25 2 7.213 6.807 2 7.249l3.959 3.429-1.189 5.1z" class="prefix__cls-3" data-name="Path 2774" transform="translate(-.55 -.55)"/>
            <path id="prefix__Path_2775-4" d="M0 0h17.4v17.4H0z" class="prefix__cls-2" data-name="Path 2775"/>
        </g>
        <g id="prefix__star-5" data-name="star" transform="translate(673 66)">
            <path id="prefix__Path_2773-5" d="M0 0h17.4v17.4H0z" class="prefix__cls-2" data-name="Path 2773"/>
            <path id="prefix__Path_2774-5" d="M9.25 13.071l4.481 2.7-1.189-5.1L16.5 7.249l-5.213-.442L9.25 2 7.213 6.807 2 7.249l3.959 3.429-1.189 5.1z" class="prefix__cls-3" data-name="Path 2774" transform="translate(-.55 -.55)"/>
            <path id="prefix__Path_2775-5" d="M0 0h17.4v17.4H0z" class="prefix__cls-2" data-name="Path 2775"/>
        </g>
        <g id="prefix__bestcompany" transform="translate(398.5 -463.4)">
            <g id="prefix__Group_1114" data-name="Group 1114" transform="translate(150.225 523.221)">
                <path id="prefix__Path_2849" d="M161.964 537.12c-.086.086-.128.171-.214.257a16.262 16.262 0 0 0-3.04 12.244 11.561 11.561 0 0 0 8.605 9.975c.942.3 1.927.385 2.911.6 0-.086.043-.128.043-.214-.342-.043-.685-.128-.985-.171-.342-.086-.728-.128-1.07-.214-3.9-1.028-6.893-3.125-8.391-6.978a15.515 15.515 0 0 1-.642-8.605 18.716 18.716 0 0 1 2.783-6.894zm12.458 22.861a2.54 2.54 0 0 0 .3.128 12.326 12.326 0 0 0 1.242-.171c4.581-.9 8.006-3.254 9.547-7.792a15.723 15.723 0 0 0-1.456-13.4c-.3-.557-.685-1.027-1.027-1.541a.642.642 0 0 0 .086.428 17.448 17.448 0 0 1 2.783 11.174 11.567 11.567 0 0 1-9.333 10.746c-.686.172-1.328.3-2.142.429zm-13.7.043a2.518 2.518 0 0 0 3.468 0c.428-.385.342-.642-.086-.9a2.555 2.555 0 0 0-3.381.9zm23.375 0c-1.027-1.456-2.954-1.627-3.767-.428a2.426 2.426 0 0 0 3.77.428zm-28.9-11.987a2.2 2.2 0 0 0 2.483 1.712c.642-.086.557-.385.342-.813a2.244 2.244 0 0 0-2.822-.899zm27.442 1.456a2.054 2.054 0 0 0 1.284 3.04c.731-1.114.177-2.484-1.281-3.04zm-18.666 3.468a2 2 0 0 0-.942 3.168 2.1 2.1 0 0 0 .945-3.169zm22.861 3.468a2.235 2.235 0 0 0-3.04-.043c-.342.343-.342.6.128.856a2.331 2.331 0 0 0 2.916-.814zm-30.782-4.2a2.111 2.111 0 0 0 2.612 1.413c.557-.128.514-.428.3-.813a2.185 2.185 0 0 0-2.908-.596zm32.665 0a2.175 2.175 0 0 0-2.826.514c-.385.514-.3.813.385.942a2.1 2.1 0 0 0 2.446-1.452zm-7.835.728a2.1 2.1 0 0 0 .856 3.211 2.009 2.009 0 0 0-.851-3.208zm8.734-4.88c-1.456-.6-3.04.257-2.911 1.541a2.163 2.163 0 0 0 2.916-1.538zm-27.442 1.413c-1.456.6-2.055 2.055-1.242 3.083a2.107 2.107 0 0 0 1.246-3.08zm15.5 5.608a2.283 2.283 0 0 0 .557 2.911c.428.343.685.257.856-.257a2.2 2.2 0 0 0-1.411-2.652zm-11.559 3.125a2.1 2.1 0 0 0 1.027-3.125 1.984 1.984 0 0 0-1.025 3.128zm-8.091-1.8a2.233 2.233 0 0 0 2.911.771c.471-.3.428-.514.128-.856a2.245 2.245 0 0 0-3.037.09zm31.253-12.8a2.171 2.171 0 0 0-2.355 1.627c-.086.471.043.728.6.642a2.134 2.134 0 0 0 1.756-2.264zm-33.736.043a2.1 2.1 0 0 0 1.8 2.226c.514.086.6-.128.557-.6a2.063 2.063 0 0 0-2.356-1.622zm31.338-6.807a1.927 1.927 0 0 0-1.927 1.413 1.222 1.222 0 0 0 .043.685c.043.086.428.043.642 0 .816-.21 1.244-.981 1.244-2.094zM159.824 539a1.685 1.685 0 0 0-1.927-2.055c.086 1.417.685 2.102 1.927 2.055zm2.783 2.44a1.7 1.7 0 0 0-2.483 1.327c1.155.475 2.011.004 2.482-1.323zm25.559-1.37a1.826 1.826 0 0 0-1.884 1.541c-.086.557.128.728.642.6a1.771 1.771 0 0 0 1.241-2.137zm-26.586 5.437a1.917 1.917 0 0 0-1.927 1.67c-.043.428.086.642.6.514a1.865 1.865 0 0 0 1.326-2.18zm-4.923-5.48a1.8 1.8 0 0 0 1.242 2.141c.514.128.728-.043.642-.6a1.938 1.938 0 0 0-1.885-1.537zm28.384 7.663a1.644 1.644 0 0 0-1.755-2.1 1.676 1.676 0 0 0 1.754 2.105zm-.342-4.88a1.692 1.692 0 0 0-2.483-1.327 1.818 1.818 0 0 0 2.484 1.331zM167.615 531c-1.284-.043-2.226.856-1.969 1.841a1.71 1.71 0 0 0 1.969-1.841zm9.59 0a1.673 1.673 0 0 0 1.5 1.841c.514.128.685-.086.557-.557a2.132 2.132 0 0 0-2.057-1.284zm-12.587 7.064a1.5 1.5 0 0 0-2.483.557 1.581 1.581 0 0 0 2.484-.559zm-4.452-3.9a1.812 1.812 0 0 0 .728 2.226c.471.257.642.043.685-.385a1.756 1.756 0 0 0-1.413-1.839zm4.838 1.2a1.574 1.574 0 0 0 2.569-.128 1.654 1.654 0 0 0-2.573.129zm15.2 2.7a1.513 1.513 0 0 0 2.483.471 1.533 1.533 0 0 0-2.487-.473zm4.5-3.9a1.717 1.717 0 0 0-1.456 1.67.777.777 0 0 0 .257.6c.086.086.385-.043.557-.171.764-.47.764-1.241.638-2.097zm-7.492 1.156a1.561 1.561 0 0 0 2.569.043 1.561 1.561 0 0 0-2.576-.041zm-14.342-3.553q-.9 1.284-.128 2.183c.128.171.385.343.514.3a.7.7 0 0 0 .385-.514 1.63 1.63 0 0 0-.778-1.967zm19.051 0a1.7 1.7 0 0 0-.728 2.055c.086.171.214.385.385.428.128.043.385-.128.471-.257a1.7 1.7 0 0 0-.135-2.224z" class="prefix__cls-3" data-name="Path 2849" transform="translate(-155.2 -530.997)"/>
                <path id="prefix__Path_2850" d="M166.384 545.3a19.017 19.017 0 0 0-2.783 6.893 15.516 15.516 0 0 0 .642 8.605c1.5 3.853 4.5 5.951 8.391 6.978a9.473 9.473 0 0 0 1.07.214 7.9 7.9 0 0 0 .985.171c0 .086-.043.128-.043.214-.985-.214-1.969-.3-2.911-.6a11.561 11.561 0 0 1-8.605-9.975 16.08 16.08 0 0 1 3.04-12.244c.086-.085.13-.17.214-.256z" class="prefix__cls-3" data-name="Path 2850" transform="translate(-159.62 -539.176)"/>
                <path id="prefix__Path_2851" d="M200.1 568.276c.813-.171 1.456-.3 2.141-.428a11.579 11.579 0 0 0 9.333-10.746 17.127 17.127 0 0 0-2.783-11.174.468.468 0 0 1-.086-.428c.342.514.728 1.027 1.027 1.541a15.723 15.723 0 0 1 1.456 13.4c-1.541 4.538-4.966 6.893-9.547 7.792a10.845 10.845 0 0 1-1.242.171 1.115 1.115 0 0 1-.299-.128z" class="prefix__cls-3" data-name="Path 2851" transform="translate(-180.878 -539.291)"/>
                <path id="prefix__Path_2852" d="M168.1 597.148a2.514 2.514 0 0 1 3.382-.9c.428.257.514.514.086.9a2.518 2.518 0 0 1-3.468 0z" class="prefix__cls-3" data-name="Path 2852" transform="translate(-162.577 -568.12)"/>
                <path id="prefix__Path_2853" d="M217.667 597.144a2.423 2.423 0 0 1-3.767-.428c.813-1.242 2.74-1.028 3.767.428z" class="prefix__cls-3" data-name="Path 2853" transform="translate(-188.77 -568.116)"/>
                <path id="prefix__Path_2854" d="M155.2 570.568a2.27 2.27 0 0 1 2.868.9c.214.385.257.728-.342.813a2.223 2.223 0 0 1-2.526-1.713z" class="prefix__cls-3" data-name="Path 2854" transform="translate(-155.2 -553.527)"/>
                <path id="prefix__Path_2855" d="M218.954 574.2c1.456.557 2.012 1.927 1.284 3.04a2.033 2.033 0 0 1-1.284-3.04z" class="prefix__cls-3" data-name="Path 2855" transform="translate(-191.512 -555.704)"/>
                <path id="prefix__Path_2856" d="M173.813 582.3a2.12 2.12 0 0 1-.942 3.168 2 2 0 0 1 .942-3.168z" class="prefix__cls-3" data-name="Path 2856" transform="translate(-165.036 -560.336)"/>
                <path id="prefix__Path_2857" d="M224.658 589.57a2.219 2.219 0 0 1-2.954.771c-.471-.257-.471-.514-.128-.856a2.345 2.345 0 0 1 3.082.085z" class="prefix__cls-3" data-name="Path 2857" transform="translate(-193.02 -564.138)"/>
                <path id="prefix__Path_2858" d="M157.2 580.183a2.185 2.185 0 0 1 2.911.6c.214.385.257.642-.3.813a2.13 2.13 0 0 1-2.611-1.413z" class="prefix__cls-3" data-name="Path 2858" transform="translate(-156.344 -558.947)"/>
                <path id="prefix__Path_2859" d="M229.436 580.164a2.1 2.1 0 0 1-2.44 1.456c-.642-.128-.771-.428-.385-.942a2.129 2.129 0 0 1 2.825-.514z" class="prefix__cls-3" data-name="Path 2859" transform="translate(-195.915 -558.928)"/>
                <path id="prefix__Path_2860" d="M214.681 582.3a2.009 2.009 0 0 1 .856 3.211c-1.284-.642-1.584-1.841-.856-3.211z" class="prefix__cls-3" data-name="Path 2860" transform="translate(-188.994 -560.336)"/>
                <path id="prefix__Path_2861" d="M231.7 570.639a2.163 2.163 0 0 1-2.911 1.541c-.127-1.28 1.457-2.14 2.911-1.541z" class="prefix__cls-3" data-name="Path 2861" transform="translate(-197.281 -553.556)"/>
                <path id="prefix__Path_2862" d="M169.353 574.2a2.131 2.131 0 0 1-1.242 3.082c-.811-1.027-.211-2.482 1.242-3.082z" class="prefix__cls-3" data-name="Path 2862" transform="translate(-162.375 -555.704)"/>
                <path id="prefix__Path_2863" d="M207.292 587.3a2.2 2.2 0 0 1 1.413 2.654c-.171.514-.428.6-.856.257a2.179 2.179 0 0 1-.557-2.911z" class="prefix__cls-3" data-name="Path 2863" transform="translate(-184.816 -563.196)"/>
                <path id="prefix__Path_2864" d="M180.115 590.425a1.984 1.984 0 0 1 1.027-3.125 2.1 2.1 0 0 1-1.027 3.125z" class="prefix__cls-3" data-name="Path 2864" transform="translate(-169.198 -563.196)"/>
                <path id="prefix__Path_2865" d="M161.8 589.548a2.19 2.19 0 0 1 3-.086c.342.342.342.557-.128.856a2.191 2.191 0 0 1-2.872-.77z" class="prefix__cls-3" data-name="Path 2865" transform="translate(-158.974 -564.116)"/>
                <path id="prefix__Path_2866" d="M231.674 560.5a2.168 2.168 0 0 1-1.712 2.269c-.6.128-.685-.128-.6-.642a2.1 2.1 0 0 1 2.312-1.627z" class="prefix__cls-3" data-name="Path 2866" transform="translate(-197.596 -547.867)"/>
                <path id="prefix__Path_2867" d="M156 560.569a2.06 2.06 0 0 1 2.355 1.67c.043.428-.086.642-.557.6a2.137 2.137 0 0 1-1.798-2.27z" class="prefix__cls-3" data-name="Path 2867" transform="translate(-155.658 -547.896)"/>
                <path id="prefix__Path_2868" d="M226.547 544.7a1.943 1.943 0 0 1-1.242 2.1c-.214.043-.557.086-.642 0a.766.766 0 0 1-.043-.685 1.927 1.927 0 0 1 1.927-1.415z" class="prefix__cls-3" data-name="Path 2868" transform="translate(-194.866 -538.833)"/>
                <path id="prefix__Path_2869" d="M163.427 546.917q-1.862 0-1.927-2.055a1.671 1.671 0 0 1 1.927 2.055z" class="prefix__cls-3" data-name="Path 2869" transform="translate(-158.803 -538.91)"/>
                <path id="prefix__Path_2870" d="M169.183 555.192c-.471 1.327-1.327 1.8-2.483 1.327a1.724 1.724 0 0 1 2.483-1.327z" class="prefix__cls-3" data-name="Path 2870" transform="translate(-161.777 -544.745)"/>
                <path id="prefix__Path_2871" d="M229.659 552.2a1.785 1.785 0 0 1-1.242 2.141c-.514.171-.728-.043-.642-.6a1.89 1.89 0 0 1 1.884-1.541z" class="prefix__cls-3" data-name="Path 2871" transform="translate(-196.694 -543.122)"/>
                <path id="prefix__Path_2872" d="M167.516 564.9a1.817 1.817 0 0 1-1.327 2.141c-.514.128-.642-.043-.6-.514a1.955 1.955 0 0 1 1.927-1.627z" class="prefix__cls-3" data-name="Path 2872" transform="translate(-161.137 -550.385)"/>
                <path id="prefix__Path_2873" d="M158.554 552.1a1.863 1.863 0 0 1 1.884 1.541c.086.557-.128.728-.642.6a1.744 1.744 0 0 1-1.242-2.141z" class="prefix__cls-3" data-name="Path 2873" transform="translate(-157.098 -543.065)"/>
                <path id="prefix__Path_2874" d="M222.506 567.191a1.676 1.676 0 0 1-1.755-2.1 1.644 1.644 0 0 1 1.755 2.1z" class="prefix__cls-3" data-name="Path 2874" transform="translate(-192.666 -550.493)"/>
                <path id="prefix__Path_2875" d="M220.783 556.533a1.818 1.818 0 0 1-2.483-1.327 1.674 1.674 0 0 1 2.483 1.327z" class="prefix__cls-3" data-name="Path 2875" transform="translate(-191.286 -544.716)"/>
                <path id="prefix__Path_2876" d="M181.513 531a1.71 1.71 0 0 1-1.969 1.841c-.258-.941.684-1.841 1.969-1.841z" class="prefix__cls-3" data-name="Path 2876" transform="translate(-169.097 -530.999)"/>
                <path id="prefix__Path_2877" d="M206.6 531a1.977 1.977 0 0 1 2.012 1.284c.128.514-.043.685-.557.557A1.671 1.671 0 0 1 206.6 531z" class="prefix__cls-3" data-name="Path 2877" transform="translate(-184.591 -530.999)"/>
                <path id="prefix__Path_2878" d="M173.883 546.946a1.6 1.6 0 0 1-2.483.557 1.509 1.509 0 0 1 2.483-.557z" class="prefix__cls-3" data-name="Path 2878" transform="translate(-164.464 -539.88)"/>
                <path id="prefix__Path_2879" d="M166.67 538.4a1.8 1.8 0 0 1 1.413 1.841c-.043.428-.214.642-.685.385a1.812 1.812 0 0 1-.728-2.226z" class="prefix__cls-3" data-name="Path 2879" transform="translate(-161.704 -535.23)"/>
                <path id="prefix__Path_2880" d="M178.1 540.254a1.6 1.6 0 0 1 2.569-.128c-.557.942-1.669.984-2.569.128z" class="prefix__cls-3" data-name="Path 2880" transform="translate(-168.296 -535.886)"/>
                <path id="prefix__Path_2881" d="M213.6 546.923a1.533 1.533 0 0 1 2.483.471 1.513 1.513 0 0 1-2.483-.471z" class="prefix__cls-3" data-name="Path 2881" transform="translate(-188.598 -539.857)"/>
                <path id="prefix__Path_2882" d="M222.1 538.4c.128.856.128 1.627-.685 2.141-.171.086-.471.214-.557.171a1.278 1.278 0 0 1-.257-.6 1.8 1.8 0 0 1 1.499-1.712z" class="prefix__cls-3" data-name="Path 2882" transform="translate(-192.601 -535.23)"/>
                <path id="prefix__Path_2883" d="M206.6 540.249a1.581 1.581 0 0 1 2.569.043 1.581 1.581 0 0 1-2.569-.043z" class="prefix__cls-3" data-name="Path 2883" transform="translate(-184.595 -535.924)"/>
                <path id="prefix__Path_2884" d="M172.473 532.8a1.774 1.774 0 0 1 .771 2.012.7.7 0 0 1-.385.514c-.128.043-.385-.171-.514-.3a1.757 1.757 0 0 1 .128-2.226z" class="prefix__cls-3" data-name="Path 2884" transform="translate(-164.809 -532.028)"/>
                <path id="prefix__Path_2885" d="M216.5 532.8a1.7 1.7 0 0 1 .128 2.226c-.128.128-.342.3-.471.257-.171-.043-.3-.257-.385-.428a1.807 1.807 0 0 1 .728-2.055z" class="prefix__cls-3" data-name="Path 2885" transform="translate(-189.784 -532.028)"/>
            </g>
            <path id="prefix__Rectangle_638" d="M0 0H40.757V40.2H0z" class="prefix__cls-2" data-name="Rectangle 638" transform="translate(146.5 517.4)"/>
        </g>
    </g>
</svg>
