<svg xmlns="http://www.w3.org/2000/svg" width="155.4" height="59" viewBox="0 0 155.4 59">
    <defs>
        <style>
            .prefix__cls-2{fill:none}.prefix__cls-3{fill:#ef492d}
        </style>
    </defs>
    <g id="prefix__Group_1126" data-name="Group 1126" transform="translate(-23 -232)">
        <circle id="prefix__Oval_3" cx="29.5" cy="29.5" r="29.5" data-name="Oval 3" transform="translate(23 232)" style="fill:#fff"/>
        <g id="prefix__star" transform="translate(92 253)">
            <path id="prefix__Path_2773" d="M0 0h17.4v17.4H0z" class="prefix__cls-2" data-name="Path 2773"/>
            <path id="prefix__Path_2774" d="M9.25 13.071l4.481 2.7-1.189-5.1L16.5 7.249l-5.213-.442L9.25 2 7.213 6.807 2 7.249l3.959 3.429-1.189 5.1z" class="prefix__cls-3" data-name="Path 2774" transform="translate(-.55 -.55)"/>
            <path id="prefix__Path_2775" d="M0 0h17.4v17.4H0z" class="prefix__cls-2" data-name="Path 2775"/>
        </g>
        <g id="prefix__star-2" data-name="star" transform="translate(109 253)">
            <path id="prefix__Path_2773-2" d="M0 0h17.4v17.4H0z" class="prefix__cls-2" data-name="Path 2773"/>
            <path id="prefix__Path_2774-2" d="M9.25 13.071l4.481 2.7-1.189-5.1L16.5 7.249l-5.213-.442L9.25 2 7.213 6.807 2 7.249l3.959 3.429-1.189 5.1z" class="prefix__cls-3" data-name="Path 2774" transform="translate(-.55 -.55)"/>
            <path id="prefix__Path_2775-2" d="M0 0h17.4v17.4H0z" class="prefix__cls-2" data-name="Path 2775"/>
        </g>
        <g id="prefix__star-3" data-name="star" transform="translate(127 253)">
            <path id="prefix__Path_2773-3" d="M0 0h17.4v17.4H0z" class="prefix__cls-2" data-name="Path 2773"/>
            <path id="prefix__Path_2774-3" d="M9.25 13.071l4.481 2.7-1.189-5.1L16.5 7.249l-5.213-.442L9.25 2 7.213 6.807 2 7.249l3.959 3.429-1.189 5.1z" class="prefix__cls-3" data-name="Path 2774" transform="translate(-.55 -.55)"/>
            <path id="prefix__Path_2775-3" d="M0 0h17.4v17.4H0z" class="prefix__cls-2" data-name="Path 2775"/>
        </g>
        <g id="prefix__star-4" data-name="star" transform="translate(144 253)">
            <path id="prefix__Path_2773-4" d="M0 0h17.4v17.4H0z" class="prefix__cls-2" data-name="Path 2773"/>
            <path id="prefix__Path_2774-4" d="M9.25 13.071l4.481 2.7-1.189-5.1L16.5 7.249l-5.213-.442L9.25 2 7.213 6.807 2 7.249l3.959 3.429-1.189 5.1z" class="prefix__cls-3" data-name="Path 2774" transform="translate(-.55 -.55)"/>
            <path id="prefix__Path_2775-4" d="M0 0h17.4v17.4H0z" class="prefix__cls-2" data-name="Path 2775"/>
        </g>
        <g id="prefix__star-5" data-name="star" transform="translate(161 253)">
            <path id="prefix__Path_2773-5" d="M0 0h17.4v17.4H0z" class="prefix__cls-2" data-name="Path 2773"/>
            <path id="prefix__Path_2774-5" d="M9.25 13.071l4.481 2.7-1.189-5.1L16.5 7.249l-5.213-.442L9.25 2 7.213 6.807 2 7.249l3.959 3.429-1.189 5.1z" class="prefix__cls-3" data-name="Path 2774" transform="translate(-.55 -.55)"/>
            <path id="prefix__Path_2775-5" d="M0 0h17.4v17.4H0z" class="prefix__cls-2" data-name="Path 2775"/>
        </g>
        <g id="prefix__Group_1123" data-name="Group 1123" transform="translate(3477 -1170.804)">
            <g id="prefix__G2_Crowd_logo" transform="translate(-3445 1411.804)">
                <path id="prefix__path8" d="M20.631 38.947a18.39 18.39 0 0 1-17.74-12.975A17.9 17.9 0 0 1 6.6 8.346a17.754 17.754 0 0 1 10.28-5.981 18.113 18.113 0 0 1 6.948-.057c.257.047.259.116.159.324Q22.29 6.162 20.611 9.7a.356.356 0 0 1-.371.229 10.541 10.541 0 0 0-3.648 20.328 10.276 10.276 0 0 0 10.572-1.619c.164-.124.232-.148.35.056q1.854 3.244 3.739 6.475c.11.189.07.274-.093.388a18.371 18.371 0 0 1-8.183 3.213 22.168 22.168 0 0 1-2.348.177z" class="prefix__cls-3"/>
                <path id="prefix__path10" d="M166.99 152.458c-.1-.054-.13-.166-.182-.256q-2.108-3.645-4.2-7.3a.53.53 0 0 0-.539-.3c-2.79.009-5.579 0-8.369 0h-.347a.417.417 0 0 1 .109-.29q2.125-3.692 4.253-7.384a.43.43 0 0 1 .435-.247q4.284.011 8.566 0a.425.425 0 0 1 .431.247q2.136 3.723 4.293 7.436a.382.382 0 0 1 .012.444q-2.166 3.74-4.316 7.473c-.038.063-.056.15-.145.174z" class="prefix__cls-3" transform="translate(-133.575 -118.861)"/>
                <path id="prefix__path12" d="M206.249 17.288c-.512-.512-.989-1-1.483-1.483-.153-.148-.046-.258.02-.371a4.449 4.449 0 0 1 2.574-2.044 4.974 4.974 0 0 1 4.01.4 3.34 3.34 0 0 1 .741 5.252 7.075 7.075 0 0 1-1.637 1.178c-.618.329-1.236.639-1.841.989a2.206 2.206 0 0 0-1.076 1.262c-.074.232-.03.293.219.29 1.634-.01 3.268 0 4.9-.01.247 0 .34.047.33.316-.022.577-.014 1.155 0 1.73 0 .183-.051.247-.238.247q-3.941-.007-7.879 0c-.124 0-.238 0-.24-.179a6.053 6.053 0 0 1 1.76-4.81 9.41 9.41 0 0 1 2.26-1.483 6.582 6.582 0 0 0 1.3-.749 1.458 1.458 0 0 0 .605-1.075c.037-.715-.529-1.247-1.384-1.3a2.788 2.788 0 0 0-2.737 1.494c-.062.1-.119.205-.2.353z" class="prefix__cls-3" transform="translate(-178.849 -9.831)"/>
                <path id="prefix__path14" d="M270 287.662v-.594h-.213v-.124h.57v.124h-.215v.594zm.449 0v-.715h.216l.124.488.124-.488h.217v.715H271v-.562l-.142.564h-.14l-.141-.564v.564z" class="prefix__cls-3" transform="translate(-236.33 -251.475)"/>
            </g>
        </g>
    </g>
</svg>
