<svg xmlns="http://www.w3.org/2000/svg" width="88.714" height="15.941" viewBox="0 0 88.714 15.941">
    <defs>
        <style>
            .cls-1{fill:#f1bc1e}
        </style>
    </defs>
    <g id="Group_938" data-name="Group 938" transform="translate(-3502 -616.893)">
        <path id="Path_2026" d="M16.714-8.93c0-.3-.321-.422-.562-.462l-5.042-.733L8.849-14.7c-.09-.191-.261-.412-.492-.412s-.4.221-.492.412L5.6-10.125l-5.037.733C.311-9.352 0-9.231 0-8.93a.781.781 0 0 0 .251.482l3.656 3.556L3.044.131a1.361 1.361 0 0 0-.02.2c0 .261.131.5.422.5a.848.848 0 0 0 .4-.121l4.51-2.371L12.867.713a.816.816 0 0 0 .4.121c.291 0 .412-.241.412-.5a1.346 1.346 0 0 0-.01-.2l-.864-5.022 3.646-3.556a.748.748 0 0 0 .263-.486z" class="cls-1" data-name="Path 2026" transform="translate(3502 632)"/>
        <path id="Path_2027" d="M16.714-8.93c0-.3-.321-.422-.562-.462l-5.042-.733L8.849-14.7c-.09-.191-.261-.412-.492-.412s-.4.221-.492.412L5.6-10.125l-5.037.733C.311-9.352 0-9.231 0-8.93a.781.781 0 0 0 .251.482l3.656 3.556L3.044.131a1.361 1.361 0 0 0-.02.2c0 .261.131.5.422.5a.848.848 0 0 0 .4-.121l4.51-2.371L12.867.713a.816.816 0 0 0 .4.121c.291 0 .412-.241.412-.5a1.346 1.346 0 0 0-.01-.2l-.864-5.022 3.646-3.556a.748.748 0 0 0 .263-.486z" class="cls-1" data-name="Path 2027" transform="translate(3520 632)"/>
        <path id="Path_2028" d="M16.714-8.93c0-.3-.321-.422-.562-.462l-5.042-.733L8.849-14.7c-.09-.191-.261-.412-.492-.412s-.4.221-.492.412L5.6-10.125l-5.037.733C.311-9.352 0-9.231 0-8.93a.781.781 0 0 0 .251.482l3.656 3.556L3.044.131a1.361 1.361 0 0 0-.02.2c0 .261.131.5.422.5a.848.848 0 0 0 .4-.121l4.51-2.371L12.867.713a.816.816 0 0 0 .4.121c.291 0 .412-.241.412-.5a1.346 1.346 0 0 0-.01-.2l-.864-5.022 3.646-3.556a.748.748 0 0 0 .263-.486z" class="cls-1" data-name="Path 2028" transform="translate(3538 632)"/>
        <path id="Path_2029" d="M16.714-8.93c0-.3-.321-.422-.562-.462l-5.042-.733L8.849-14.7c-.09-.191-.261-.412-.492-.412s-.4.221-.492.412L5.6-10.125l-5.037.733C.311-9.352 0-9.231 0-8.93a.781.781 0 0 0 .251.482l3.656 3.556L3.044.131a1.361 1.361 0 0 0-.02.2c0 .261.131.5.422.5a.848.848 0 0 0 .4-.121l4.51-2.371L12.867.713a.816.816 0 0 0 .4.121c.291 0 .412-.241.412-.5a1.346 1.346 0 0 0-.01-.2l-.864-5.022 3.646-3.556a.748.748 0 0 0 .263-.486z" class="cls-1" data-name="Path 2029" transform="translate(3556 632)"/>
        <path id="Path_2030" d="M16.714-8.93c0-.3-.321-.422-.562-.462l-5.042-.733L8.849-14.7c-.09-.191-.261-.412-.492-.412s-.4.221-.492.412L5.6-10.125l-5.037.733C.311-9.352 0-9.231 0-8.93a.781.781 0 0 0 .251.482l3.656 3.556L3.044.131a1.361 1.361 0 0 0-.02.2c0 .261.131.5.422.5a.848.848 0 0 0 .4-.121l4.51-2.371L12.867.713a.816.816 0 0 0 .4.121c.291 0 .412-.241.412-.5a1.346 1.346 0 0 0-.01-.2l-.864-5.022 3.646-3.556a.748.748 0 0 0 .263-.486z" class="cls-1" data-name="Path 2030" transform="translate(3574 632)"/>
    </g>
</svg>
