<svg xmlns="http://www.w3.org/2000/svg" width="21.333" height="30.222" viewBox="0 0 21.333 30.222">
    <defs>
        <style>
            .cls-1{fill:#f1bc1e}.cls-2{fill:#fff}
        </style>
    </defs>
    <g id="Group_933" data-name="Group 933" transform="translate(-3565.541 -289)">
        <path id="Shape" d="M4.552 8.6H1.736a.576.576 0 0 1-.191-.114l-.169-.182C1.368 8.294.57 7.073.191 6.574A1.763 1.763 0 0 1 0 6.1l.021-.365L5.929 6.8c-.4.56-1.01 1.495-1.016 1.5l-.169.182a.411.411 0 0 1-.191.114zm1.737-5.775L.021 1.709v-.274a.592.592 0 0 1 .212-.342A.782.782 0 0 1 .636 1h5.013a.839.839 0 0 1 .407.093.62.62 0 0 1 .206.292c.013.031.021.05.027.05v1.39z" class="cls-1" transform="translate(3573.116 310.62)"/>
        <g id="Swirl" transform="translate(3572.245 312.839)">
            <path id="Shape-2" d="M7.407 4.046a.643.643 0 0 1-.1-.008L.535 2.912a.619.619 0 0 1-.406-.252.665.665 0 0 1-.121-.492.649.649 0 0 1 .644-.534.64.64 0 0 1 .1.008l6.774 1.125a.632.632 0 0 1 .429.26.621.621 0 0 1 .1.484.65.65 0 0 1-.648.535zm0-1.634a.643.643 0 0 1-.1-.008L.535 1.278a.616.616 0 0 1-.408-.246.67.67 0 0 1-.119-.5A.649.649 0 0 1 .652 0a.64.64 0 0 1 .1.008l6.774 1.126a.62.62 0 0 1 .406.253.665.665 0 0 1 .121.491.65.65 0 0 1-.646.534z" class="cls-1" data-name="Shape"/>
        </g>
        <path id="Shape-3" d="M15.1 22.154c-.43 0-1.15 0-1.883-.019l-.359-.007a132.27 132.27 0 0 1-2.213-.052c-.39.018-1.276.035-2.213.052l-.36.007c-.711.019-1.416.019-1.883.019a2.074 2.074 0 0 1-.544-.078 1.634 1.634 0 0 1-.46-.216 1.8 1.8 0 0 1-.648-.746 1.488 1.488 0 0 1 .127-1.314h-.007a.043.043 0 0 0 .007-.02v-.005a2.5 2.5 0 0 0-.355-1.956 46.25 46.25 0 0 0-2.573-3.846 5.455 5.455 0 0 1-.251-.333 2.935 2.935 0 0 0-.167-.236h.021A7.912 7.912 0 0 1 0 9.027C0 4.049 4.795 0 10.688 0a11.52 11.52 0 0 1 8.177 3.223 8.151 8.151 0 0 1 2.469 5.8 8.108 8.108 0 0 1-1.945 5.18 41.132 41.132 0 0 0-2.4 3.61 2.415 2.415 0 0 0-.356 1.962v.02a1.49 1.49 0 0 1 .126 1.314 1.616 1.616 0 0 1-.648.746 2.717 2.717 0 0 1-.46.216 2.054 2.054 0 0 1-.551.083z" class="cls-1" data-name="Shape" transform="translate(3565.541 289)"/>
        <path id="Shape-4" d="M15.02 5.253a2.468 2.468 0 0 0-.208-2.013 2.6 2.6 0 0 0-1.642-1.147A1.984 1.984 0 0 0 12.048.866a1.812 1.812 0 0 0-1.538.06A1.94 1.94 0 0 0 8.992 0a2.737 2.737 0 0 0-1.58.765A1.56 1.56 0 0 0 5.854.242a2.366 2.366 0 0 0-1.5 1.429 2.246 2.246 0 0 0-1.808.2 1.369 1.369 0 0 0-.746 1.45A5.391 5.391 0 0 0 .3 4.71a3.293 3.293 0 0 0-.225 2.012 3.2 3.2 0 0 0 2.183 1.59A2.012 2.012 0 0 0 3.5 8.091a2.256 2.256 0 0 1 .624-.322.677.677 0 0 1 .437.161 1.624 1.624 0 0 0 .894.242 3.721 3.721 0 0 0 1.351-.5 2.938 2.938 0 0 0 1.189 1.023 3.8 3.8 0 0 0 1.621.121 3.087 3.087 0 0 0 1.455 1.63 3.989 3.989 0 0 0 2.12-.02c1.206-.362 1.725-2.335 1.725-2.335a2.089 2.089 0 0 0 .457-1.429c.042-1.147-.353-1.409-.353-1.409z" class="cls-2" data-name="Shape" transform="translate(3568.156 292.322)"/>
        <g id="Creases" transform="translate(3569.663 294.087)">
            <path id="Shape-5" d="M12.01 2.594a.29.29 0 0 0-.238.046 1.376 1.376 0 0 0-.437.615 1.845 1.845 0 0 1-.556.274.472.472 0 0 1-.318-.114 1.636 1.636 0 0 0-.238-.3 3.92 3.92 0 0 0-.5-.5 1.777 1.777 0 0 0-.675-.3 1.648 1.648 0 0 1-.179-.661 1.615 1.615 0 0 1 .382-.747A1.615 1.615 0 0 0 9.37.748.875.875 0 0 0 9.489.36c-.06-.273-.357-.091-.357-.091a1.417 1.417 0 0 0-.516.456 10.134 10.134 0 0 0-.4.98.464.464 0 0 1-.278.274.711.711 0 0 1-.377-.023 1.447 1.447 0 0 1-.536-.41.673.673 0 0 1-.159-.16A4.374 4.374 0 0 0 6.61 1c-.1-.137-.139-.205-.139-.205L6.511.2a.4.4 0 0 0-.1-.137.245.245 0 0 0-.3-.023c-.159.137-.2.479-.258.684a.227.227 0 0 1-.119.137 2.766 2.766 0 0 1-.774.228 4.686 4.686 0 0 1-.953-.023 9.628 9.628 0 0 0-.771-.592A.164.164 0 0 0 3 .543a.653.653 0 0 0 .04.365 6.1 6.1 0 0 0 .715.866 1.541 1.541 0 0 1-.119.661 3.069 3.069 0 0 1-.576.8s-.38-.435-.718-.755a3.989 3.989 0 0 0-.516-.433s-.576-.251-.655.068c-.06.251.258.479.258.479a2.216 2.216 0 0 1 .417.319 2.916 2.916 0 0 1 .417.524 5.689 5.689 0 0 0-1.052.182 1.931 1.931 0 0 0-.794.41A1.38 1.38 0 0 0 0 4.645s.119.319.278.319c.2 0 .457-.342.457-.342a1.817 1.817 0 0 1 .635-.41A6.99 6.99 0 0 1 2.541 4.1c.318-.023.516-.046.516-.046a3.842 3.842 0 0 0 .437-.433A2.768 2.768 0 0 0 3.97 3a3.645 3.645 0 0 0 .238-.8c.06-.3.119-.524.119-.524a4.583 4.583 0 0 0 .854-.046 8.19 8.19 0 0 0 .953-.205 4.64 4.64 0 0 0 .3.387 3.925 3.925 0 0 0 .3.342 2.38 2.38 0 0 0-.377.593 2.853 2.853 0 0 0-.139.684 7.541 7.541 0 0 0-.814.205 1.6 1.6 0 0 0-.516.274s-.258.319-.179.479c.119.182.516.16.516.16s.278-.182.457-.274a1.747 1.747 0 0 1 .457-.137s.258.661.476 1.117a3.805 3.805 0 0 0 .258.433s.357.365.377-.114a.8.8 0 0 0-.079-.433 2.7 2.7 0 0 0-.258-.479 5.41 5.41 0 0 1-.183-1.111 1.357 1.357 0 0 1 .2-.752s.278-.319.556-.3a4.723 4.723 0 0 1 1.092.251c.318.114.556.205.556.205s.258.023.715.547a2.858 2.858 0 0 1 .357.57.755.755 0 0 1 0 .228 1.013 1.013 0 0 1-.079.205 2.783 2.783 0 0 0-.933.046.737.737 0 0 0-.377.365s-.159.251.06.387a.485.485 0 0 0 .357.023.356.356 0 0 1 .278-.16 1.149 1.149 0 0 1 .5.182.6.6 0 0 1-.06.5A12.654 12.654 0 0 1 8.854 7.13a1.56 1.56 0 0 0-.159.205.356.356 0 0 0 .2.387.465.465 0 0 0 .336-.022s.3-.342.556-.615c.258-.3.457-.5.457-.5a2.429 2.429 0 0 1 .476.387 1.483 1.483 0 0 1 .258.433s.139.342.318.41c.1.046.258-.182.258-.182a1.13 1.13 0 0 0-.06-.593 5 5 0 0 0-.695-.8.537.537 0 0 1-.159-.228.607.607 0 0 1 .02-.251 1.978 1.978 0 0 0 .119-.524 1.458 1.458 0 0 0-.06-.524 2.23 2.23 0 0 1 .06-.3A1.815 1.815 0 0 1 10.9 4.1a2.171 2.171 0 0 0 .6-.274 4.413 4.413 0 0 0 .516-.57 1.019 1.019 0 0 0 .218-.57s-.125-.046-.224-.092z" class="cls-1" data-name="Shape"/>
        </g>
    </g>
</svg>
