<svg xmlns="http://www.w3.org/2000/svg" width="28" height="7.261" viewBox="0 0 28 7.261">
    <defs>
        <style>
            .cls-1{fill:#fff}
        </style>
    </defs>
    <g id="more-options" transform="translate(0 -167.089)">
        <path id="Path_2825" d="M3.631 174.35a3.631 3.631 0 1 1 3.631-3.631 3.635 3.635 0 0 1-3.631 3.631zm0-5.928a2.3 2.3 0 1 0 2.3 2.3 2.3 2.3 0 0 0-2.3-2.3z" class="cls-1" data-name="Path 2825"/>
        <path id="Path_2826" d="M170.72 174.351a3.631 3.631 0 1 1 3.631-3.631 3.635 3.635 0 0 1-3.631 3.631zm0-5.928a2.3 2.3 0 1 0 2.3 2.3 2.3 2.3 0 0 0-2.3-2.3z" class="cls-1" data-name="Path 2826" transform="translate(-156.72 -.001)"/>
        <path id="Path_2827" d="M337.8 174.351a3.631 3.631 0 1 1 3.631-3.631 3.635 3.635 0 0 1-3.631 3.631zm0-5.928a2.3 2.3 0 1 0 2.3 2.3 2.3 2.3 0 0 0-2.3-2.3z" class="cls-1" data-name="Path 2827" transform="translate(-313.436 -.001)"/>
    </g>
</svg>
