<svg xmlns="http://www.w3.org/2000/svg" width="152.4" height="59" viewBox="0 0 152.4 59">
    <defs>
        <style>
            .prefix__cls-1{fill:none}.prefix__cls-2{fill:#d70000}
        </style>
    </defs>
    <g id="prefix__Group_1135" data-name="Group 1135" transform="translate(-273 -45)">
        <g id="prefix__star" transform="translate(339 66)">
            <path id="prefix__Path_2773" d="M0 0h17.4v17.4H0z" class="prefix__cls-1" data-name="Path 2773"/>
            <path id="prefix__Path_2774" d="M9.25 13.071l4.481 2.7-1.189-5.1L16.5 7.249l-5.213-.442L9.25 2 7.213 6.807 2 7.249l3.959 3.429-1.189 5.1z" class="prefix__cls-2" data-name="Path 2774" transform="translate(-.55 -.55)"/>
            <path id="prefix__Path_2775" d="M0 0h17.4v17.4H0z" class="prefix__cls-1" data-name="Path 2775"/>
        </g>
        <g id="prefix__star-2" data-name="star" transform="translate(356 66)">
            <path id="prefix__Path_2773-2" d="M0 0h17.4v17.4H0z" class="prefix__cls-1" data-name="Path 2773"/>
            <path id="prefix__Path_2774-2" d="M9.25 13.071l4.481 2.7-1.189-5.1L16.5 7.249l-5.213-.442L9.25 2 7.213 6.807 2 7.249l3.959 3.429-1.189 5.1z" class="prefix__cls-2" data-name="Path 2774" transform="translate(-.55 -.55)"/>
            <path id="prefix__Path_2775-2" d="M0 0h17.4v17.4H0z" class="prefix__cls-1" data-name="Path 2775"/>
        </g>
        <g id="prefix__star-3" data-name="star" transform="translate(374 66)">
            <path id="prefix__Path_2773-3" d="M0 0h17.4v17.4H0z" class="prefix__cls-1" data-name="Path 2773"/>
            <path id="prefix__Path_2774-3" d="M9.25 13.071l4.481 2.7-1.189-5.1L16.5 7.249l-5.213-.442L9.25 2 7.213 6.807 2 7.249l3.959 3.429-1.189 5.1z" class="prefix__cls-2" data-name="Path 2774" transform="translate(-.55 -.55)"/>
            <path id="prefix__Path_2775-3" d="M0 0h17.4v17.4H0z" class="prefix__cls-1" data-name="Path 2775"/>
        </g>
        <g id="prefix__star-4" data-name="star" transform="translate(391 66)">
            <path id="prefix__Path_2773-4" d="M0 0h17.4v17.4H0z" class="prefix__cls-1" data-name="Path 2773"/>
            <path id="prefix__Path_2774-4" d="M9.25 13.071l4.481 2.7-1.189-5.1L16.5 7.249l-5.213-.442L9.25 2 7.213 6.807 2 7.249l3.959 3.429-1.189 5.1z" class="prefix__cls-2" data-name="Path 2774" transform="translate(-.55 -.55)"/>
            <path id="prefix__Path_2775-4" d="M0 0h17.4v17.4H0z" class="prefix__cls-1" data-name="Path 2775"/>
        </g>
        <g id="prefix__star-5" data-name="star" transform="translate(408 66)">
            <path id="prefix__Path_2773-5" d="M0 0h17.4v17.4H0z" class="prefix__cls-1" data-name="Path 2773"/>
            <path id="prefix__Path_2774-5" d="M9.25 13.071l4.481 2.7-1.189-5.1L16.5 7.249l-5.213-.442L9.25 2 7.213 6.807 2 7.249l3.959 3.429-1.189 5.1z" class="prefix__cls-2" data-name="Path 2774" transform="translate(-.55 -.55)"/>
            <path id="prefix__Path_2775-5" d="M0 0h17.4v17.4H0z" class="prefix__cls-1" data-name="Path 2775"/>
        </g>
        <g id="prefix__Group_1122" data-name="Group 1122" transform="translate(-168 -417)">
            <circle id="prefix__Oval_3" cx="29.5" cy="29.5" r="29.5" data-name="Oval 3" transform="translate(441 462)" style="fill:#fff"/>
            <g id="prefix__Group_1120" data-name="Group 1120" transform="translate(-1.7 -89)">
                <path id="prefix__Path_2886" d="M213.186 593.717v-25.058l9.39 9.467v-6.686l-11.738-11.84-11.738 11.84v6.686l9.39-9.467v25.058z" data-name="Path 2886" transform="translate(252.6 3.4)" style="fill:#333"/>
                <g id="prefix__Group_1116" data-name="Group 1116" transform="translate(467.67 587.7)">
                    <path id="prefix__Path_2810" d="M516.724 576.213H515.2l1.552-7.013h3.008a3.7 3.7 0 0 1 1.271.179 1.491 1.491 0 0 1 .739.594 1.771 1.771 0 0 1 .274.986 2.543 2.543 0 0 1-.218 1.031 2.407 2.407 0 0 1-.532.8 2.378 2.378 0 0 1-.678.459 3.587 3.587 0 0 1-.98.235 11.649 11.649 0 0 1-1.344.05h-.975zm.846-3.837h.471a5.73 5.73 0 0 0 1.608-.146 1.312 1.312 0 0 0 .639-.459 1.137 1.137 0 0 0 .23-.695.631.631 0 0 0-.448-.65 3.719 3.719 0 0 0-.958-.073h-1.092z" class="prefix__cls-2" data-name="Path 2810" transform="translate(-515.2 -569.2)"/>
                </g>
                <g id="prefix__Group_1117" data-name="Group 1117" transform="translate(474.57 587.974)">
                    <path id="prefix__Path_2811" d="M624.178 580.839H622.8l1.4-6.739h2.722a3.056 3.056 0 0 1 1.148.174 1.379 1.379 0 0 1 .667.571 1.777 1.777 0 0 1 .247.947 2.627 2.627 0 0 1-.2.991 2.369 2.369 0 0 1-.482.773 1.949 1.949 0 0 1-.616.437 3.636 3.636 0 0 1-.885.23 11.19 11.19 0 0 1-1.216.045h-.874zm.767-3.686h.426a4.775 4.775 0 0 0 1.456-.14 1.2 1.2 0 0 0 .577-.442 1.15 1.15 0 0 0 .213-.667.667.667 0 0 0-.106-.4.626.626 0 0 0-.3-.23 3.3 3.3 0 0 0-.868-.073h-.986z" class="prefix__cls-2" data-name="Path 2811" transform="translate(-622.8 -574.1)"/>
                </g>
                <g id="prefix__Group_1118" data-name="Group 1118" transform="translate(481.492 587.868)">
                    <path id="prefix__Path_2812" d="M733.2 576.62l1.484.213a3.857 3.857 0 0 1-1.383 1.736 3.635 3.635 0 0 1-2.078.6 2.682 2.682 0 0 1-2.039-.745 2.825 2.825 0 0 1-.655-2.162 4.608 4.608 0 0 1 .588-2.1 3.725 3.725 0 0 1 1.445-1.456 3.949 3.949 0 0 1 1.949-.5 2.814 2.814 0 0 1 1.871.588 2.24 2.24 0 0 1 .784 1.6l-1.428.129a1.3 1.3 0 0 0-.42-.851 1.387 1.387 0 0 0-.885-.263 2.172 2.172 0 0 0-1.165.347 2.58 2.58 0 0 0-.9 1.092 3.836 3.836 0 0 0-.381 1.484 1.7 1.7 0 0 0 .364 1.249 1.3 1.3 0 0 0 1.02.442 1.833 1.833 0 0 0 1.07-.347 2.291 2.291 0 0 0 .759-1.056z" class="prefix__cls-2" data-name="Path 2812" transform="translate(-728.52 -572.2)"/>
                </g>
            </g>
        </g>
    </g>
</svg>
