<svg xmlns="http://www.w3.org/2000/svg" width="183" height="59" viewBox="0 0 183 59">
    <defs>
        <style>
            .cls-1{fill:#fff}.cls-2{fill:#bf261a}.cls-3{fill:#be2418}
        </style>
    </defs>
    <g id="Group_1351" data-name="Group 1351" transform="translate(-315 -2380)">
        <circle id="Oval_3" cx="29.5" cy="29.5" r="29.5" class="cls-1" data-name="Oval 3" transform="translate(315 2380)"/>
        <g id="yelp" transform="translate(246.208 2380.513)">
            <path id="Path_21" d="M136.159 25.377a3.7 3.7 0 0 1-.323 2.018 1.456 1.456 0 0 1-2.167.457 4.517 4.517 0 0 1-1.159-1.316q-3.1-4.894-6.187-9.8c-.6-.954-1.206-1.9-1.813-2.853a1.342 1.342 0 0 1 .449-1.907 7.817 7.817 0 0 1 1.884-.946 24.848 24.848 0 0 1 5.21-1.411 5.294 5.294 0 0 1 2.112-.032 1.183 1.183 0 0 1 1 1.151c.2 1.419.229 2.853.331 4.272.142 1.907.284 3.815.41 5.73.071 1.017.118 2.041.173 3.066.033.594.057 1.194.08 1.571z" class="cls-2" data-name="Path 21" transform="translate(-37.298)"/>
            <path id="Path_22" d="M320.268 162.347a1.263 1.263 0 0 1-1.032 1.379c-1.537.4-3.09.78-4.634 1.166l-3.807.946a1.82 1.82 0 0 1-2.309-1.568 1.525 1.525 0 0 1 .315-1.1c1.695-2.293 3.389-4.595 5.083-6.88.662-.891 1.316-1.048 2.144-.52a2.9 2.9 0 0 1 .489.394 16.309 16.309 0 0 1 3.531 5.241 1.873 1.873 0 0 1 .22.942z" class="cls-2" data-name="Path 22" transform="translate(-206.975 -134.472)"/>
            <path id="Path_23" d="M83.792 244.371a15.861 15.861 0 0 1 .5-4.035 2.18 2.18 0 0 1 .355-.733 1.213 1.213 0 0 1 1.458-.481c1.253.457 2.491.954 3.72 1.45 1.553.631 3.089 1.285 4.642 1.915A1.583 1.583 0 0 1 95.5 243.9a1.681 1.681 0 0 1-.741 1.671 3.738 3.738 0 0 1-.993.355c-2.475.8-4.957 1.561-7.432 2.372-1.395.457-2.128-.079-2.372-1.608a14.335 14.335 0 0 1-.17-2.319z" class="cls-2" data-name="Path 23" transform="translate(0 -211.459)"/>
            <path id="Path_24" d="M325.717 334.3a4.234 4.234 0 0 1-.709 1.726 16.115 16.115 0 0 1-3.728 4.366 1.451 1.451 0 0 1-1.876.142 3.327 3.327 0 0 1-.678-.906q-2.175-3.476-4.327-6.967a1.779 1.779 0 0 1 1.387-2.688 1.67 1.67 0 0 1 .615.118c2.333.772 4.658 1.537 6.991 2.309.5.165.993.323 1.482.512a1.3 1.3 0 0 1 .843 1.388z" class="cls-2" data-name="Path 24" transform="translate(-212.197 -295.226)"/>
            <path id="Path_25" d="M167.406 358.961v4.3a1.4 1.4 0 0 1-1.616 1.521 12.369 12.369 0 0 1-3.9-.993 10.631 10.631 0 0 1-2.68-1.371 1.44 1.44 0 0 1-.315-2.42c1.836-2.2 3.7-4.382 5.556-6.565a1.639 1.639 0 0 1 1.955-.441 1.6 1.6 0 0 1 1.08 1.616c0 .733-.008 1.474-.008 2.207v2.167a.117.117 0 0 0-.072-.021z" class="cls-2" data-name="Path 25" transform="translate(-68.702 -316.293)"/>
        </g>
        <g id="Group_1350" data-name="Group 1350" transform="translate(-4 -22)">
            <g id="Group_1345" data-name="Group 1345">
                <rect id="Rectangle_688" width="22" height="22" class="cls-3" data-name="Rectangle 688" rx="1" transform="translate(388 2432)"/>
                <g id="rate-star-button" transform="translate(391 2429.625)">
                    <g id="star-rate" transform="translate(0 6.375)">
                        <path id="Path_3016" d="M7.6 17.522l4.687 3.42-1.773-5.573 4.686-3.294H9.5l-1.9-5.7-1.9 5.7H0l4.687 3.293-1.774 5.574z" class="cls-1" data-name="Path 3016" transform="translate(0 -6.375)"/>
                    </g>
                </g>
            </g>
            <g id="Group_1346" data-name="Group 1346" transform="translate(23)">
                <rect id="Rectangle_688-2" width="22" height="22" class="cls-3" data-name="Rectangle 688" rx="1" transform="translate(388 2432)"/>
                <g id="rate-star-button-2" data-name="rate-star-button" transform="translate(391 2429.625)">
                    <g id="star-rate-2" data-name="star-rate" transform="translate(0 6.375)">
                        <path id="Path_3016-2" d="M7.6 17.522l4.687 3.42-1.773-5.573 4.686-3.294H9.5l-1.9-5.7-1.9 5.7H0l4.687 3.293-1.774 5.574z" class="cls-1" data-name="Path 3016" transform="translate(0 -6.375)"/>
                    </g>
                </g>
            </g>
            <g id="Group_1347" data-name="Group 1347" transform="translate(46)">
                <rect id="Rectangle_688-3" width="22" height="22" class="cls-3" data-name="Rectangle 688" rx="1" transform="translate(388 2432)"/>
                <g id="rate-star-button-3" data-name="rate-star-button" transform="translate(391 2429.625)">
                    <g id="star-rate-3" data-name="star-rate" transform="translate(0 6.375)">
                        <path id="Path_3016-3" d="M7.6 17.522l4.687 3.42-1.773-5.573 4.686-3.294H9.5l-1.9-5.7-1.9 5.7H0l4.687 3.293-1.774 5.574z" class="cls-1" data-name="Path 3016" transform="translate(0 -6.375)"/>
                    </g>
                </g>
            </g>
            <g id="Group_1348" data-name="Group 1348" transform="translate(69)">
                <rect id="Rectangle_688-4" width="22" height="22" class="cls-3" data-name="Rectangle 688" rx="1" transform="translate(388 2432)"/>
                <g id="rate-star-button-4" data-name="rate-star-button" transform="translate(391 2429.625)">
                    <g id="star-rate-4" data-name="star-rate" transform="translate(0 6.375)">
                        <path id="Path_3016-4" d="M7.6 17.522l4.687 3.42-1.773-5.573 4.686-3.294H9.5l-1.9-5.7-1.9 5.7H0l4.687 3.293-1.774 5.574z" class="cls-1" data-name="Path 3016" transform="translate(0 -6.375)"/>
                    </g>
                </g>
            </g>
            <g id="Group_1349" data-name="Group 1349" transform="translate(92)">
                <rect id="Rectangle_688-5" width="22" height="22" class="cls-3" data-name="Rectangle 688" rx="1" transform="translate(388 2432)"/>
                <g id="rate-star-button-5" data-name="rate-star-button" transform="translate(391 2429.625)">
                    <g id="star-rate-5" data-name="star-rate" transform="translate(0 6.375)">
                        <path id="Path_3016-5" d="M7.6 17.522l4.687 3.42-1.773-5.573 4.686-3.294H9.5l-1.9-5.7-1.9 5.7H0l4.687 3.293-1.774 5.574z" class="cls-1" data-name="Path 3016" transform="translate(0 -6.375)"/>
                    </g>
                </g>
            </g>
        </g>
    </g>
</svg>
