<svg xmlns="http://www.w3.org/2000/svg" width="158.286" height="59" viewBox="0 0 158.286 59">
  <g id="upcity" transform="translate(-126 -2467)">
    <path id="Path_3404" data-name="Path 3404" d="M14.857-7.938a.646.646,0,0,1-.232.429L11.384-4.348,12.152.116a1.35,1.35,0,0,1,.009.179.526.526,0,0,1-.094.317.315.315,0,0,1-.272.129.722.722,0,0,1-.357-.107L7.429-1.473,3.42.634a.759.759,0,0,1-.357.107A.325.325,0,0,1,2.781.612.526.526,0,0,1,2.688.295,1.45,1.45,0,0,1,2.705.116l.768-4.464L.223-7.509A.68.68,0,0,1,0-7.938q0-.33.5-.411L4.982-9l2.009-4.063q.17-.366.438-.366t.438.366L9.875-9l4.482.652Q14.857-8.268,14.857-7.938Zm18.857,0a.646.646,0,0,1-.232.429L30.241-4.348,31.009.116a1.351,1.351,0,0,1,.009.179.526.526,0,0,1-.094.317.315.315,0,0,1-.272.129.722.722,0,0,1-.357-.107L26.286-1.473,22.277.634a.759.759,0,0,1-.357.107.325.325,0,0,1-.281-.129.526.526,0,0,1-.094-.317,1.45,1.45,0,0,1,.018-.179l.768-4.464L19.08-7.509a.68.68,0,0,1-.223-.429q0-.33.5-.411L23.839-9l2.009-4.063q.17-.366.438-.366t.438.366L28.732-9l4.482.652Q33.714-8.268,33.714-7.938Zm18.857,0a.646.646,0,0,1-.232.429L49.1-4.348,49.866.116a1.35,1.35,0,0,1,.009.179.526.526,0,0,1-.094.317.315.315,0,0,1-.272.129.722.722,0,0,1-.357-.107L45.143-1.473,41.134.634a.759.759,0,0,1-.357.107A.325.325,0,0,1,40.5.612.526.526,0,0,1,40.4.295,1.449,1.449,0,0,1,40.42.116l.768-4.464-3.25-3.161a.68.68,0,0,1-.223-.429q0-.33.5-.411L42.7-9l2.009-4.063q.17-.366.438-.366t.438.366L47.589-9l4.482.652Q52.571-8.268,52.571-7.938Zm18.857,0a.646.646,0,0,1-.232.429L67.955-4.348,68.723.116a1.349,1.349,0,0,1,.009.179.526.526,0,0,1-.094.317.315.315,0,0,1-.272.129.722.722,0,0,1-.357-.107L64-1.473,59.991.634a.759.759,0,0,1-.357.107.325.325,0,0,1-.281-.129.526.526,0,0,1-.094-.317,1.449,1.449,0,0,1,.018-.179l.768-4.464-3.25-3.161a.68.68,0,0,1-.223-.429q0-.33.5-.411L61.554-9l2.009-4.063q.17-.366.438-.366t.438.366L66.446-9l4.482.652Q71.429-8.268,71.429-7.938Zm18.857,0a.646.646,0,0,1-.232.429L86.813-4.348,87.58.116a1.35,1.35,0,0,1,.009.179A.526.526,0,0,1,87.5.612a.315.315,0,0,1-.272.129.722.722,0,0,1-.357-.107L82.857-1.473,78.848.634a.759.759,0,0,1-.357.107A.325.325,0,0,1,78.21.612a.526.526,0,0,1-.094-.317,1.449,1.449,0,0,1,.018-.179L78.9-4.348l-3.25-3.161a.68.68,0,0,1-.223-.429q0-.33.5-.411L80.411-9l2.009-4.063q.17-.366.438-.366t.438.366L85.3-9l4.482.652Q90.286-8.268,90.286-7.938Z" transform="translate(194 2507)" fill="#f79522"/>
    <circle id="Oval_3" data-name="Oval 3" cx="29.5" cy="29.5" r="29.5" transform="translate(126 2467)" fill="#fff"/>
    <g id="Group_1353" data-name="Group 1353" transform="translate(-135.033 2272.829)">
      <path id="Path_3017" data-name="Path 3017" d="M300.664,219.6a10.466,10.466,0,0,0-10.683-9.427,10.051,10.051,0,0,0-8.657,5.386,10.233,10.233,0,0,0-.477,9,37.129,37.129,0,0,0,8.6,12.846,1.613,1.613,0,0,0,2.1-.062,32.152,32.152,0,0,0,2.223-2.512,37.961,37.961,0,0,0,5.7-9.125A12.827,12.827,0,0,0,300.664,219.6Zm-3.481,1.3a6.828,6.828,0,1,1-6.675-7.2A6.755,6.755,0,0,1,297.184,220.9Z" transform="translate(0 0)" fill="#f69422"/>
      <path id="Path_3018" data-name="Path 3018" d="M355.849,289.3a3.412,3.412,0,0,1,6.824,0,3.416,3.416,0,0,1-3.421,3.412A3.379,3.379,0,0,1,355.849,289.3Z" transform="translate(-68.839 -68.747)" fill="#f69422"/>
    </g>
  </g>
</svg>
