<svg xmlns="http://www.w3.org/2000/svg" width="158.286" height="59" viewBox="0 0 158.286 59">
  <g id="Group_2027" data-name="Group 2027" transform="translate(-1594 -1807)">
    <path id="_" data-name="    " d="M14.857-7.938a.646.646,0,0,1-.232.429L11.384-4.348,12.152.116a1.35,1.35,0,0,1,.009.179.526.526,0,0,1-.094.317.315.315,0,0,1-.272.129.722.722,0,0,1-.357-.107L7.429-1.473,3.42.634a.759.759,0,0,1-.357.107A.325.325,0,0,1,2.781.612.526.526,0,0,1,2.688.295,1.45,1.45,0,0,1,2.705.116l.768-4.464L.223-7.509A.68.68,0,0,1,0-7.938q0-.33.5-.411L4.982-9l2.009-4.063q.17-.366.438-.366t.438.366L9.875-9l4.482.652Q14.857-8.268,14.857-7.938Zm18.857,0a.646.646,0,0,1-.232.429L30.241-4.348,31.009.116a1.351,1.351,0,0,1,.009.179.526.526,0,0,1-.094.317.315.315,0,0,1-.272.129.722.722,0,0,1-.357-.107L26.286-1.473,22.277.634a.759.759,0,0,1-.357.107.325.325,0,0,1-.281-.129.526.526,0,0,1-.094-.317,1.45,1.45,0,0,1,.018-.179l.768-4.464L19.08-7.509a.68.68,0,0,1-.223-.429q0-.33.5-.411L23.839-9l2.009-4.063q.17-.366.438-.366t.438.366L28.732-9l4.482.652Q33.714-8.268,33.714-7.938Zm18.857,0a.646.646,0,0,1-.232.429L49.1-4.348,49.866.116a1.35,1.35,0,0,1,.009.179.526.526,0,0,1-.094.317.315.315,0,0,1-.272.129.722.722,0,0,1-.357-.107L45.143-1.473,41.134.634a.759.759,0,0,1-.357.107A.325.325,0,0,1,40.5.612.526.526,0,0,1,40.4.295,1.449,1.449,0,0,1,40.42.116l.768-4.464-3.25-3.161a.68.68,0,0,1-.223-.429q0-.33.5-.411L42.7-9l2.009-4.063q.17-.366.438-.366t.438.366L47.589-9l4.482.652Q52.571-8.268,52.571-7.938Zm18.857,0a.646.646,0,0,1-.232.429L67.955-4.348,68.723.116a1.349,1.349,0,0,1,.009.179.526.526,0,0,1-.094.317.315.315,0,0,1-.272.129.722.722,0,0,1-.357-.107L64-1.473,59.991.634a.759.759,0,0,1-.357.107.325.325,0,0,1-.281-.129.526.526,0,0,1-.094-.317,1.449,1.449,0,0,1,.018-.179l.768-4.464-3.25-3.161a.68.68,0,0,1-.223-.429q0-.33.5-.411L61.554-9l2.009-4.063q.17-.366.438-.366t.438.366L66.446-9l4.482.652Q71.429-8.268,71.429-7.938Zm18.857,0a.646.646,0,0,1-.232.429L86.813-4.348,87.58.116a1.35,1.35,0,0,1,.009.179A.526.526,0,0,1,87.5.612a.315.315,0,0,1-.272.129.722.722,0,0,1-.357-.107L82.857-1.473,78.848.634a.759.759,0,0,1-.357.107A.325.325,0,0,1,78.21.612a.526.526,0,0,1-.094-.317,1.449,1.449,0,0,1,.018-.179L78.9-4.348l-3.25-3.161a.68.68,0,0,1-.223-.429q0-.33.5-.411L80.411-9l2.009-4.063q.17-.366.438-.366t.438.366L85.3-9l4.482.652Q90.286-8.268,90.286-7.938Z" transform="translate(1662 1847)" fill="#007bb6"/>
    <circle id="Oval_3" data-name="Oval 3" cx="29.5" cy="29.5" r="29.5" transform="translate(1594 1807)" fill="#fff"/>
    <rect id="Rectangle_774" data-name="Rectangle 774" width="28" height="30" rx="2" transform="translate(1610 1822)" fill="#007bb6"/>
    <g id="linkedin-logo" transform="translate(1614 1817.442)">
      <path id="LinkedIn" d="M20.75,21.714v7.671H16.3V22.228c0-1.8-.643-3.025-2.253-3.025a2.434,2.434,0,0,0-2.282,1.627,3.043,3.043,0,0,0-.148,1.084v7.471H7.171s.06-12.123,0-13.379H11.62v1.9c-.009.014-.021.029-.029.043h.029V17.9a4.417,4.417,0,0,1,4.009-2.211C18.556,15.693,20.75,17.6,20.75,21.714ZM2.517,9.558a2.318,2.318,0,1,0-.059,4.624h.03a2.319,2.319,0,1,0,.029-4.624ZM.264,29.386H4.711V16.007H.264Z" fill="#fff"/>
    </g>
  </g>
</svg>
