<svg xmlns="http://www.w3.org/2000/svg" width="160" height="86" viewBox="0 0 160 86">
    <defs>
        <style>
            .cls-1{fill:#fff}.cls-2{fill:#f6ad01}.cls-3{fill:#fbbb00}.cls-4{fill:#518ef8}.cls-5{fill:#28b446}.cls-6{fill:#f14336}.cls-7{filter:url(#Oval_3)}
        </style>
        <filter id="Oval_3" width="86" height="86" x="0" y="0" filterUnits="userSpaceOnUse">
            <feOffset dx="3" dy="6"/>
            <feGaussianBlur result="blur" stdDeviation="4.5"/>
            <feFlood flood-color="#0b69a7" flood-opacity=".133"/>
            <feComposite in2="blur" operator="in"/>
            <feComposite in="SourceGraphic"/>
        </filter>
    </defs>
    <g id="Group_1344" data-name="Group 1344" transform="translate(-115.5 -2372.5)">
        <g class="cls-7" transform="translate(115.5 2372.5)">
            <circle id="Oval_3-2" cx="29.5" cy="29.5" r="29.5" class="cls-1" data-name="Oval 3" transform="translate(10.5 7.5)"/>
        </g>
        <circle id="Oval_3-3" cx="29.5" cy="29.5" r="29.5" class="cls-1" data-name="Oval 3" transform="translate(126 2380)"/>
        <path id="Path_3011" d="M13.576-8.411c0-.245-.261-.343-.457-.375l-4.1-.6-1.831-3.708c-.073-.155-.212-.335-.4-.335s-.326.179-.4.335L4.553-9.382l-4.1.6c-.2.033-.457.131-.457.375a.635.635 0 0 0 .2.392l2.97 2.888-.7 4.079a1.106 1.106 0 0 0-.016.163c0 .212.106.408.343.408a.689.689 0 0 0 .326-.1L6.788-2.5l3.663 1.921a.663.663 0 0 0 .326.1c.237 0 .335-.2.335-.408a1.093 1.093 0 0 0-.008-.163l-.7-4.079 2.962-2.888a.608.608 0 0 0 .21-.394zm17.231 0c0-.245-.261-.343-.457-.375l-4.1-.6-1.836-3.712c-.073-.155-.212-.335-.4-.335s-.326.179-.4.335l-1.83 3.716-4.1.6c-.2.033-.457.131-.457.375a.635.635 0 0 0 .2.392L20.4-5.131l-.7 4.079a1.106 1.106 0 0 0-.016.163c0 .212.106.408.343.408a.689.689 0 0 0 .326-.1L24.019-2.5l3.663 1.921a.663.663 0 0 0 .326.1c.237 0 .335-.2.335-.408a1.094 1.094 0 0 0-.008-.163l-.7-4.079 2.962-2.888a.608.608 0 0 0 .21-.394zm17.231 0c0-.245-.261-.343-.457-.375l-4.1-.6-1.831-3.708c-.073-.155-.212-.335-.4-.335s-.326.179-.4.335l-1.835 3.712-4.1.6c-.2.033-.457.131-.457.375a.635.635 0 0 0 .2.392l2.97 2.888-.7 4.079a1.106 1.106 0 0 0-.016.163c0 .212.106.408.343.408a.689.689 0 0 0 .326-.1L41.25-2.5l3.663 1.921a.663.663 0 0 0 .326.1c.237 0 .335-.2.335-.408a1.094 1.094 0 0 0-.008-.163l-.7-4.079 2.962-2.888a.608.608 0 0 0 .21-.394zm17.231 0c0-.245-.261-.343-.457-.375l-4.1-.6-1.836-3.712c-.073-.155-.212-.335-.4-.335s-.326.179-.4.335l-1.83 3.716-4.1.6c-.2.033-.457.131-.457.375a.635.635 0 0 0 .2.392l2.97 2.888-.7 4.079a1.106 1.106 0 0 0-.016.163c0 .212.106.408.343.408a.689.689 0 0 0 .326-.1L58.481-2.5l3.663 1.921a.663.663 0 0 0 .326.1c.237 0 .335-.2.335-.408a1.093 1.093 0 0 0-.008-.163l-.7-4.079 2.962-2.888a.608.608 0 0 0 .21-.394zm17.231 0c0-.245-.261-.343-.457-.375l-4.1-.6-1.836-3.712c-.073-.155-.212-.335-.4-.335s-.326.179-.4.335l-1.83 3.716-4.1.6c-.2.033-.457.131-.457.375a.635.635 0 0 0 .2.392l2.98 2.884-.7 4.079a1.105 1.105 0 0 0-.016.163c0 .212.106.408.343.408a.689.689 0 0 0 .326-.1L75.712-2.5l3.663 1.921a.663.663 0 0 0 .326.1c.237 0 .334-.2.334-.408a1.094 1.094 0 0 0-.008-.163l-.7-4.079 2.962-2.888a.608.608 0 0 0 .211-.394z" class="cls-2" data-name="Path 3011" transform="translate(193 2422.429)"/>
        <g id="search" transform="translate(141 2395)">
            <path id="Path_3012" d="M6.427 147.962l-1.009 3.768-3.69.078a14.525 14.525 0 0 1-.107-13.54l3.285.6 1.439 3.265a8.654 8.654 0 0 0 .081 5.826z" class="cls-3" data-name="Path 3012" transform="translate(0 -130.436)"/>
            <path id="Path_3013" d="M275.556 208.176a14.494 14.494 0 0 1-5.169 14.016l-4.137-.211-.586-3.655a8.642 8.642 0 0 0 3.718-4.413h-7.754v-5.736h13.928z" class="cls-4" data-name="Path 3013" transform="translate(-246.809 -196.385)"/>
            <path id="Path_3014" d="M52.358 317.691a14.5 14.5 0 0 1-21.85-4.436l4.7-3.846a8.624 8.624 0 0 0 12.427 4.415z" class="cls-5" data-name="Path 3014" transform="translate(-28.781 -291.884)"/>
            <path id="Path_3015" d="M50.758 3.338l-4.7 3.846a8.623 8.623 0 0 0-12.71 4.516l-4.723-3.868a14.5 14.5 0 0 1 22.133-4.494z" class="cls-6" data-name="Path 3015" transform="translate(-27.003)"/>
        </g>
    </g>
</svg>
