<svg xmlns="http://www.w3.org/2000/svg" width="152.4" height="59" viewBox="0 0 152.4 59">
    <defs>
        <style>
            .prefix__cls-2{fill:none}.prefix__cls-3{fill:#d70000}.prefix__cls-4{fill:#c93f30}.prefix__cls-5{fill:#1768b0}.prefix__cls-6{fill:#3695d0}.prefix__cls-7{fill:#3795d0}.prefix__cls-8{fill:#c93e31}.prefix__cls-9{fill:#c83f31}.prefix__cls-12{fill:#c73e32}.prefix__cls-13{fill:#c83e32}.prefix__cls-15{fill:#3895d0}.prefix__cls-16{fill:#c93f34}.prefix__cls-18{fill:#1569ae}.prefix__cls-21{fill:#1868ad}.prefix__cls-22{fill:#c94033}.prefix__cls-23{fill:#c73e31}.prefix__cls-24{fill:#1768ae}.prefix__cls-25{fill:#c83f32}.prefix__cls-26{fill:#c83f30}.prefix__cls-27{fill:#c93e32}.prefix__cls-28{fill:#c93f32}.prefix__cls-30{fill:#3997ce}.prefix__cls-32{fill:#c74034}.prefix__cls-33{fill:#c83e31}.prefix__cls-34{fill:#c93f33}.prefix__cls-35{fill:#1768ac}.prefix__cls-37{fill:#1967a9}.prefix__cls-39{fill:#c73f2e}.prefix__cls-41{fill:#1a67ac}.prefix__cls-42{fill:#c94134}.prefix__cls-48{fill:#c63f2c}.prefix__cls-56{fill:#c83f2d}.prefix__cls-60{fill:#1b69ad}.prefix__cls-61{fill:#206baf}.prefix__cls-64{fill:#c74230}.prefix__cls-69{fill:#ca4437}.prefix__cls-70{fill:#c94132}.prefix__cls-76{fill:#c73e2d}.prefix__cls-77{fill:#c83e2e}.prefix__cls-78{fill:#ca4136}.prefix__cls-84{fill:#c84232}.prefix__cls-89{fill:#c83d2b}.prefix__cls-91{fill:#cb3f35}.prefix__cls-104{fill:#c83f2a}.prefix__cls-105{fill:#cb3d2b}.prefix__cls-108{fill:#c44033}.prefix__cls-111{fill:#ca3d34}.prefix__cls-118{fill:#1768ad}.prefix__cls-119{fill:#1867ac}.prefix__cls-120{fill:#1768aa}.prefix__cls-133{fill:#ca3d2c}.prefix__cls-138{fill:#ca3e2a}
        </style>
    </defs>
    <g id="prefix__Group_1132" data-name="Group 1132" transform="translate(-273 -138)">
        <circle id="prefix__Oval_3" cx="29.5" cy="29.5" r="29.5" data-name="Oval 3" transform="translate(273 138)" style="fill:#fff"/>
        <g id="prefix__star" transform="translate(339 159)">
            <path id="prefix__Path_2773" d="M0 0h17.4v17.4H0z" class="prefix__cls-2" data-name="Path 2773"/>
            <path id="prefix__Path_2774" d="M9.25 13.071l4.481 2.7-1.189-5.1L16.5 7.249l-5.213-.442L9.25 2 7.213 6.807 2 7.249l3.959 3.429-1.189 5.1z" class="prefix__cls-3" data-name="Path 2774" transform="translate(-.55 -.55)"/>
            <path id="prefix__Path_2775" d="M0 0h17.4v17.4H0z" class="prefix__cls-2" data-name="Path 2775"/>
        </g>
        <g id="prefix__star-2" data-name="star" transform="translate(356 159)">
            <path id="prefix__Path_2773-2" d="M0 0h17.4v17.4H0z" class="prefix__cls-2" data-name="Path 2773"/>
            <path id="prefix__Path_2774-2" d="M9.25 13.071l4.481 2.7-1.189-5.1L16.5 7.249l-5.213-.442L9.25 2 7.213 6.807 2 7.249l3.959 3.429-1.189 5.1z" class="prefix__cls-3" data-name="Path 2774" transform="translate(-.55 -.55)"/>
            <path id="prefix__Path_2775-2" d="M0 0h17.4v17.4H0z" class="prefix__cls-2" data-name="Path 2775"/>
        </g>
        <g id="prefix__star-3" data-name="star" transform="translate(374 159)">
            <path id="prefix__Path_2773-3" d="M0 0h17.4v17.4H0z" class="prefix__cls-2" data-name="Path 2773"/>
            <path id="prefix__Path_2774-3" d="M9.25 13.071l4.481 2.7-1.189-5.1L16.5 7.249l-5.213-.442L9.25 2 7.213 6.807 2 7.249l3.959 3.429-1.189 5.1z" class="prefix__cls-3" data-name="Path 2774" transform="translate(-.55 -.55)"/>
            <path id="prefix__Path_2775-3" d="M0 0h17.4v17.4H0z" class="prefix__cls-2" data-name="Path 2775"/>
        </g>
        <g id="prefix__star-4" data-name="star" transform="translate(391 159)">
            <path id="prefix__Path_2773-4" d="M0 0h17.4v17.4H0z" class="prefix__cls-2" data-name="Path 2773"/>
            <path id="prefix__Path_2774-4" d="M9.25 13.071l4.481 2.7-1.189-5.1L16.5 7.249l-5.213-.442L9.25 2 7.213 6.807 2 7.249l3.959 3.429-1.189 5.1z" class="prefix__cls-3" data-name="Path 2774" transform="translate(-.55 -.55)"/>
            <path id="prefix__Path_2775-4" d="M0 0h17.4v17.4H0z" class="prefix__cls-2" data-name="Path 2775"/>
        </g>
        <g id="prefix__star-5" data-name="star" transform="translate(408 159)">
            <path id="prefix__Path_2773-5" d="M0 0h17.4v17.4H0z" class="prefix__cls-2" data-name="Path 2773"/>
            <path id="prefix__Path_2774-5" d="M9.25 13.071l4.481 2.7-1.189-5.1L16.5 7.249l-5.213-.442L9.25 2 7.213 6.807 2 7.249l3.959 3.429-1.189 5.1z" class="prefix__cls-3" data-name="Path 2774" transform="translate(-.55 -.55)"/>
            <path id="prefix__Path_2775-5" d="M0 0h17.4v17.4H0z" class="prefix__cls-2" data-name="Path 2775"/>
        </g>
        <g id="prefix__Group_1115" data-name="Group 1115" transform="translate(-421.04 -210.213)">
            <g id="prefix__XMLID_1_" transform="translate(659.191 286.013)">
                <path id="prefix__XMLID_742_" d="M483.551 88.312a4.5 4.5 0 0 1-.127-1.262c-.017-.821.008-1.634-.034-2.456a2.937 2.937 0 0 0-2.515-2.955c-.3-.076-.406-.178-.364-.474a1.728 1.728 0 0 0 0-.3c0-.762 0-.762.762-.542a.332.332 0 0 1-.3.042c.051-.017.186.059.3-.042a4.307 4.307 0 0 1 3.844 2.854 1.674 1.674 0 0 1 .025.2c-.22.2-.059.474-.135.7a1.467 1.467 0 0 1-.059.508 9.629 9.629 0 0 0-.042 1.846c-.034-.491-.008-.982-.008-1.465 0-.127-.042-.3.161-.339.169.161.119.364.119.559a19.118 19.118 0 0 0 .076 2.312c-.017.152-.186.279-.11.457.008.076.042.085.093.034a.086.086 0 0 1 .085.034c.025.085.042.169.068.254a.454.454 0 0 0 .093.339 3.028 3.028 0 0 0 2.634 1.939c.271.034.356.135.339.4-.025.3.076.661-.042.915s-.533.144-.8.237a4.574 4.574 0 0 0-1.355.661.837.837 0 0 0-.339.347 3.916 3.916 0 0 0-.593 1.516c-.237.085-.186-.093-.2-.22 0-.042-.008-.11-.025-.11-.059 0-.017.051-.025.076a.946.946 0 0 1-.025.152.654.654 0 0 0-.034.313l.025.025s.034-.017.034-.025c.068-.119.127-.22.246-.042 0 .085-.008.169-.008.254-.144.262-.127.593-.389.8-.034.457-.017.923-.017 1.372a4.146 4.146 0 0 1 .119-1.406 8.7 8.7 0 0 1 .085 1.55 10.575 10.575 0 0 1 .085-1.634 11.611 11.611 0 0 1 .051 2.236c-.085 2.659-1.406 3.938-3.641 4.209-.008-.119-.119-.135-.195-.186-.118-.1-.262-.008-.389-.042-.059 0 0 .076-.017.025a.706.706 0 0 1 .4.017 2.306 2.306 0 0 1 .212.195c-.025.017-.042.042-.068.051-1.016.212-1.2.025-1.033-1.025.025-.169.11-.2.246-.22a2.867 2.867 0 0 0 2.608-3.015c.059-1.042.042-2.083.093-3.125a4.225 4.225 0 0 1 .517-1.939 3.487 3.487 0 0 1 2.684-1.617 3.339 3.339 0 0 1-3.1-2.921.237.237 0 0 0 .127-.144c-.057.035-.074.111-.142.077z" class="prefix__cls-4" transform="translate(-401.457)"/>
                <path id="prefix__XMLID_741_" d="M44.081 94.339a3.688 3.688 0 0 0-1.9-.8c-.271-.034-.356-.135-.33-.39a5.882 5.882 0 0 0 .017-.669c-.025-.059.271-.11 0-.169.034-.186.178-.195.322-.186a.3.3 0 0 0 .263-.059c.025-.008.051-.008.085-.017a.836.836 0 0 0 .508-.152 3.146 3.146 0 0 0 1.677-1.457c.042-.11.263-.025.237-.212.034-.11.034-.11.33-.356.034-.025 0-.085-.017-.127-.068-.254-.076-.517-.135-.771a.407.407 0 0 1 .076-.39.178.178 0 0 1 .11-.042c-.051-.618 0-1.228-.034-1.846a.25.25 0 0 0-.119-.11.238.238 0 0 1-.135-.22c-.034-.169.042-.322.025-.491a3.747 3.747 0 0 1 2.5-3.692 1.74 1.74 0 0 1 .2-.042 1.213 1.213 0 0 0 .449-.144 1.413 1.413 0 0 1 .593-.1c.076.042.127.093.1.186.008.042-.144.119.008.127a1.657 1.657 0 0 0 .61-.051.285.285 0 0 1 .229.068c0 .017.008.025.008.042.051.737.051.728-.652.915-.246.068-.474.161-.711.246a.292.292 0 0 1-.068-.076c-.1-.144-.263-.025-.381-.085-.017-.008.017.059.034.085.093.059.212.051.271.161a3.678 3.678 0 0 0-1.351 3.236 16.377 16.377 0 0 1-.186 3.4 3.128 3.128 0 0 1-2.642 2.549c-.119-.042-.237.042-.356-.025a.272.272 0 0 0-.119-.008c.042.008.085 0 .127.008.127.042.229.144.347.186a3.493 3.493 0 0 1 2.794 3.667c.042 1.05 0 2.109.076 3.159a2.868 2.868 0 0 0 2.413 2.761c.135.034.406-.059.4.246a.193.193 0 0 1-.1.051.182.182 0 0 1-.1-.034c.017-.051-.008.025-.034-.025s-.059-.017-.034.008c.178.212.1.44.076.669a.208.208 0 0 1-.11.119.211.211 0 0 1 .119.025c.017.3-.22.178-.364.229-.135.034-.263-.068-.4-.034-2.447-.474-3.574-1.719-3.743-3.5 0-.042.008-.085.008-.127.025-.279.288-.491.2-.8l.025-.127c0-.813.042-1.617-.025-2.43a.7.7 0 0 1-.059-.11c-.1-.229.008-.432.051-.644-.059.076-.017.2-.11.271-.212.017-.22-.508-.025-.932-.051.135-.093.271-.279.254a3.414 3.414 0 0 0-.525-1.016c-.066-.05-.151-.135-.244-.202z" class="prefix__cls-4" transform="translate(0 -1.538)"/>
                <path id="prefix__XMLID_740_" d="M161.8 101.829a2.252 2.252 0 0 1-2.608 1.948c-.957-.085-1.914-.008-2.871-.042a1.107 1.107 0 0 1-.5-.042v-.339a19.315 19.315 0 0 1 2.1-.042c.406-.008.813 0 1.219 0h-3.082a.357.357 0 0 1-.246-.042c-.008-2.4-.008-4.784-.017-7.181 0-.22.068-.288.288-.288 1.169.008 2.337-.017 3.506.025a2.015 2.015 0 0 1 1.931 2.7 1.711 1.711 0 0 1-.745.965 1.96 1.96 0 0 1 .7.635.107.107 0 0 1 .017.144c-.22.271-.1.33.178.3.017 0 .034.034.042.059a.958.958 0 0 1 .093.508c-.042.076-.093.135-.186.127h-.017s.008.025.017.025c.181.159.126.362.181.54z" class="prefix__cls-5" transform="translate(-104.301 -14.279)"/>
                <path id="prefix__XMLID_739_" d="M324.635 95.388c-.169.008-.339.008-.508.017-.44.017-.788.076-.991-.55-.254-.788-1.9-.915-2.447-.263a.774.774 0 0 0 .364 1.287c.7.237 1.431.406 2.142.6a2.355 2.355 0 0 1 1.431.855c.085.068-.042.263.161.263a2.556 2.556 0 0 1-.313 2.642 3.419 3.419 0 0 1-3.438.864c-.1-.017-.229.008-.313-.093a.8.8 0 0 1 .3-.237.966.966 0 0 1-.737.051 2.25 2.25 0 0 1-1.321-2.21c.246-.152.423.178.644.076-.085-.008-.22.017-.229-.152.11-.008.229 0 .339-.017.457-.076.779.025.838.559a.8.8 0 0 0 .559.584 2.388 2.388 0 0 0 1.854-.008.853.853 0 0 0 .559-.864.773.773 0 0 0-.576-.754c-.644-.263-1.338-.347-1.99-.542a2.9 2.9 0 0 1-1.287-.593 2.439 2.439 0 0 1-.127-3.133c.161-.017.3-.11.449-.127-.042-.059-.271.076-.2-.152a3.221 3.221 0 0 1 4.488.373c.093.135.271.212.271.415-.152.279.017.483.178.677.017.085.042.169.059.254-.032.09-.226.008-.159.178z" class="prefix__cls-5" transform="translate(-253.643 -11.487)"/>
                <path id="prefix__XMLID_738_" d="M244.982 97.257c0 .432.034.864-.008 1.3-.034.33.059.415.356.373a.522.522 0 0 1 .161.017c.119.161.3.135.457.135h1.846c.7 0 .915.423.55 1.067a.819.819 0 0 0-.525-.1h-1.541c.576.034 1.262-.051 1.948.034.059.093.246.042.237.212-1.042.008-2.083.025-3.125.008-.3 0-.406.042-.364.381a8.388 8.388 0 0 1 .008 1.3c-.008.254.051.4.33.381.034.076.068.017.1 0h.085c.8.11 1.617.008 2.43.051a2.582 2.582 0 0 1 1.109.085v1.186a.328.328 0 0 1-.2.042h-5.123a.493.493 0 0 1-.161-.025c-.034-.178-.135-.39.178-.39 1.677-.008 3.345 0 5 0-.042-.068-.136 0-.2 0q-2.324-.013-4.649 0c-.246 0-.381-.034-.381-.339.017-2.312.008-4.624.008-6.935a.341.341 0 0 1 .042-.2c1.7-.008 3.413-.017 5.115-.034.161 0 .229.051.22.22-.017.381-.017.762-.025 1.143-.254-.093-.093-.313-.152-.432v.135c-.008.135.034.33-.161.33-.212-.008-.1-.212-.127-.339-.008-.051.008-.11 0-.169-.008.152.051.322-.025.449-.11.161-.313.076-.474.076q-1.346.013-2.693 0a.3.3 0 0 0-.246.038z" class="prefix__cls-5" transform="translate(-184.575 -14.279)"/>
                <path id="prefix__XMLID_737_" d="M398.276 103.677c-.322.085-.44-.008-.432-.373.017-1.922 0-3.836.017-5.758 0-.347-.1-.423-.423-.406-.508.025-1.016 0-1.524.008-.2.008-.254-.068-.271-.271-.068-1.169-.068-1.169 1.092-1.169 1.5 0 2.989.008 4.488-.008.33 0 .4.1.39.406-.008 1.033 0 1.033-1.033 1.042-.4 0-.788.017-1.185.025-.051.051-.1 0-.152 0a.793.793 0 0 0 .135.152 1.283 1.283 0 0 1 0 .508c-.093.059-.017.186-.11.254-.051.042-.1-.093-.093-.008a23.986 23.986 0 0 1 .059 2.7 17.7 17.7 0 0 0 .059 2.32c.042.22-.085.237-.254.178-.246-.169-.55.042-.8-.127a.842.842 0 0 1-.068-.406V98.41c0-.068-.017-.144.042-.195-.059.042-.042.1-.042.152.008 1.541-.017 3.082.008 4.624a.3.3 0 0 0 .093.195c.246.1.525-.059.771.1.119.262.017.356-.254.356a1.2 1.2 0 0 0-.513.035z" class="prefix__cls-5" transform="translate(-323.812 -14.188)"/>
                <path id="prefix__XMLID_736_" d="M286.286 271.571c0 .694-.017 1.4.009 2.092.008.3-.1.373-.39.373s-.347-.1-.339-.373c.017-1.109.009-2.227.017-3.336 0-.144-.1-.39.152-.406s.533-.135.711.186c.4.728.813 1.448 1.219 2.168a.361.361 0 0 0 .195.169c0-.728.009-1.457-.008-2.185-.008-.271.068-.373.356-.373.271 0 .364.076.356.356-.017 1.1 0 2.2-.008 3.294 0 .161.144.44-.169.474-.271.025-.576.1-.762-.263-.339-.661-.728-1.3-1.1-1.948-.051-.085-.1-.169-.152-.246a.25.25 0 0 1-.087.018z" class="prefix__cls-6" transform="translate(-223.076 -173.622)"/>
                <path id="prefix__XMLID_735_" d="M197.517 272.359c0 .872-.254 1.169-1.126 1.338a1.974 1.974 0 0 1-2.413-2.32 1.859 1.859 0 0 1 2.38-1.821 1.218 1.218 0 0 1 .923.66c.076.152.3.381.059.5-.22.11-.542.3-.762-.085a.818.818 0 0 0-.948-.381.989.989 0 0 0-.8.838 2.354 2.354 0 0 0 .051 1.211 1.062 1.062 0 0 0 1.719.474.433.433 0 0 0 .119-.457c-.025-.186-.2-.093-.3-.127-.186-.059-.483.169-.534-.2-.042-.313-.008-.559.423-.508a3.2 3.2 0 0 0 .8 0c.347-.042.449.11.415.432a2.613 2.613 0 0 0-.006.446z" class="prefix__cls-6" transform="translate(-139.227 -173.275)"/>
                <path id="prefix__XMLID_734_" d="M148.87 270.031c.33-.093.457.085.559.381.39 1.109.813 2.219 1.219 3.328.042.119.229.33.025.381a.725.725 0 0 1-.745-.085c-.017-.017-.017-.051-.034-.076-.119-.237-.1-.644-.322-.694a4.466 4.466 0 0 0-1.3-.034c-.262.017-.2.3-.288.457s-.034.432-.3.449c-.195.017-.44.059-.576-.042-.161-.119.025-.33.085-.491.373-1.075.771-2.142 1.135-3.218.085-.279.22-.44.542-.356z" class="prefix__cls-7" transform="translate(-96.287 -173.734)"/>
                <path id="prefix__XMLID_733_" d="M395.25 273.6c.373.059.161.347.195.525.034.2-.152.195-.3.195-.745 0-1.49-.008-2.244.008-.254.008-.3-.1-.3-.33q.013-1.753 0-3.506c0-.212.068-.3.288-.3.737.008 1.465.008 2.2 0 .279-.008.271.161.279.356.008.212-.025.347-.3.339-.466-.017-.932.008-1.4-.009-.39-.017-.3.246-.3.457.008.195-.11.483.288.457s.821.008 1.228-.008c.263-.009.381.051.364.347-.008.254-.059.39-.347.373-.39-.025-.788.008-1.186-.009-.279-.017-.381.085-.356.364a6.808 6.808 0 0 1 .008.72c-.025.051-.059.093-.2.161a10.155 10.155 0 0 0 2.083-.14z" class="prefix__cls-7" transform="translate(-321.049 -173.905)"/>
                <path id="prefix__XMLID_732_" d="M244.017 273.9c-.008-1.169-.008-2.337-.017-3.514 0-.22.068-.3.288-.288.745.008 1.5.017 2.244 0 .279-.009.279.152.279.356s-.008.356-.279.347c-.483-.017-.957.008-1.44 0s-.271.347-.313.567c-.042.254.068.347.33.339.44-.017.872.008 1.313-.008.271-.008.3.119.288.339s.008.389-.3.381c-.423-.017-.847.008-1.27-.008-.271-.008-.373.076-.364.364.025.881-.1.711.7.728.364.009.737 0 1.1 0 .22 0 .356.076.3.33a.527.527 0 0 1-.4.2c-.728.017-1.465.017-2.193 0a.485.485 0 0 1-.266-.133z" class="prefix__cls-6" transform="translate(-185.032 -173.812)"/>
                <path id="prefix__XMLID_731_" d="M164.7 212.451c.161-.008.144-.144.169-.254.144-.525.279-1.05.423-1.575.152-.3.406-.22.652-.169.186.669.373 1.329.576 2.049.246-.66.263-1.338.474-1.965.186-.263.44-.025.652-.085-.237 1.033-.474 2.066-.7 3.108-.051.229-.135.322-.39.322a.345.345 0 0 1-.4-.313c-.144-.627-.313-1.253-.5-1.982-.186.72-.373 1.329-.508 1.956-.059.288-.178.39-.457.3a1.121 1.121 0 0 0 .161-.677.453.453 0 0 1 .212-.423c.076-.119.034-.263.059-.313a.461.461 0 0 1-.093.322c-.127.034-.152-.229-.33-.119-.021.021-.063-.115 0-.182z" class="prefix__cls-8" transform="translate(-112.418 -119.176)"/>
                <path id="prefix__XMLID_730_" d="M435.357 272.489a.557.557 0 0 0-.474-.559 5.973 5.973 0 0 1-1-.322 1.112 1.112 0 0 1-.694-1.135 1.077 1.077 0 0 1 .991-1.025 1.659 1.659 0 0 1 1.465.313.775.775 0 0 1 .237.339c.051.169.271.44.008.525-.212.068-.559.279-.737-.178a.765.765 0 0 0-1.092-.186c-.237.212-.144.423.093.542a8.008 8.008 0 0 0 .8.271c.356.127.745.186.94.567.051.347.025.4-.229.415-.144-.051.025-.3-.195-.3.017 0 .034-.008.059-.008.093.085.025.229.127.3a.513.513 0 0 1-.076.491c-.189.094-.189.094-.223-.05z" class="prefix__cls-7" transform="translate(-358.191 -173.186)"/>
                <path id="prefix__XMLID_729_" d="M328.907 272.866a2.7 2.7 0 0 1 .042-2.735 1.732 1.732 0 0 1 2.456-.347.84.84 0 0 1 .271.364c.034.161.3.39-.008.508-.229.093-.525.33-.7-.144a.661.661 0 0 0-.779-.373.88.88 0 0 0-.737.728 2.921 2.921 0 0 0 .085 1.617.352.352 0 0 1-.076.491c-.19.145-.393.018-.554-.109z" class="prefix__cls-7" transform="translate(-262.428 -173.198)"/>
                <path id="prefix__XMLID_728_" d="M395.682 210.427a.752.752 0 0 0-.915-.415.875.875 0 0 0-.618.771 2.045 2.045 0 0 0 .263 1.49c.051.085.178.144.161.229-.034.212.11.1.178.11.288-.051.525.127.8.144l.042.042a1.332 1.332 0 0 1-1.931-.55 2.345 2.345 0 0 1 .059-2.159 1.4 1.4 0 0 1 2.125-.432c0 .059-.135.059-.076.135.2.245.09.44-.088.635z" class="prefix__cls-9" transform="translate(-321.81 -118.21)"/>
                <path id="prefix__XMLID_727_" d="M374.894 272.022c0-.567.017-1.126-.008-1.694-.017-.3.127-.347.381-.339.22.008.406-.025.4.313q-.025 1.753 0 3.506c.008.339-.178.3-.4.313-.246.008-.389-.025-.381-.339.025-.575.008-1.167.008-1.76z" transform="translate(-304.833 -173.717)" style="fill:#3795cf"/>
                <path id="prefix__XMLID_726_" d="M433.1 213.389c-.263.042-.135-.169-.135-.246-.008-.931-.008-1.854 0-2.786 0-.135-.085-.356.161-.364.2-.008.449-.119.593.161.3.567.661 1.1.915 1.694.017.093-.051.2.059.271a.235.235 0 0 1-.025.212c-.237.127-.347-.1-.508-.178-.152-.271-.3-.55-.457-.821-.042-.068-.085-.034-.127-.008-.11.169.025.33.008.5-.008.474.017.948-.008 1.423-.279.169-.347 0-.364-.237a8.177 8.177 0 0 0-.042-1.118 3.887 3.887 0 0 1-.07 1.497z" transform="translate(-357.97 -118.776)" style="fill:#c93f31"/>
                <path id="prefix__XMLID_725_" d="M238.053 211.9a.829.829 0 0 1 .415 1.109c-.119.271-.144.457.085.66.059.051.059.178.076.271-.042.059-.127.119.017.169a.665.665 0 0 1-.034.423c-.11.042-.313.025-.144.237-.1.169-.195.339-.423.364-.093-.051-.2-.017-.288-.051-.229-.1-.186-.212.034-.313-.322.1-.635.008-.948.169-.195.1-.195-.135-.127-.3a.207.207 0 0 1 .093-.076 1.643 1.643 0 0 1 .576-.042.522.522 0 0 0 .567-.39.634.634 0 0 1 .059-.1c.051-.051.1-.1.042-.169-.1-.076-.195 0-.3 0-.322-.025-.635-.051-.957-.085a.189.189 0 0 1-.11-.3 1.716 1.716 0 0 0 .178-.3.43.43 0 0 1 .313-.093.547.547 0 0 0 .635-.559c.051-.119.11-.229.263-.22a.439.439 0 0 1 .212.254c-.034-.161-.144-.195-.2-.271a6.02 6.02 0 0 0-.957.008c-.127-.017-.254.008-.381-.008-.169-.017-.44.051-.449-.169 0-.178.271-.135.423-.144a6.726 6.726 0 0 0 .923-.034 2.206 2.206 0 0 1 .407-.04z" class="prefix__cls-12" transform="translate(-177.984 -120.548)"/>
                <path id="prefix__XMLID_724_" d="M204.453 215.531c.059.212-.042.263-.237.254-.381-.008-.754.008-1.135-.008-.364-.017-.237.246-.229.406s-.169.457.229.449c.432-.008.872.008 1.3.008-.042.212-.22.169-.364.186-.271.025-.55 0-.821.017-.237.034-.483.39-.72-.008-.017-.025.034-.059-.008-.025-.025.017-.008.017.008.042.186.347.449.093.686.093a6.234 6.234 0 0 1 .889 0c.135.008.33-.025.339.212-.517.059-1.033.008-1.55.025-.135.008-.279-.051-.406.051-.093.008-.22.085-.237-.093a6.737 6.737 0 0 0 0-1.431v-.771a.838.838 0 0 0 0-.5v-.338a1.148 1.148 0 0 1 .644.288l.025.051a2.685 2.685 0 0 0 .008.737l.051.1c.11.22.313.127.483.152.342.035.714-.109 1.045.103z" class="prefix__cls-13" transform="translate(-146.772 -122.561)"/>
                <path id="prefix__XMLID_723_" d="M322.356 215.746c.093.381-.017.576-.449.517a4.5 4.5 0 0 0-.677-.008.5.5 0 0 0-.474.754c.059.135.161.093.246.093.423.008.847.017 1.262 0 .229-.008.288.076.279.3-.008.195.008.356-.279.339-.534-.025-1.067-.017-1.6-.025a.776.776 0 0 1-.2-.584c0-.644-.008-1.3 0-1.939a.539.539 0 0 1 .186-.491 3.568 3.568 0 0 1 1.236-.059c.135 0 .288.051.22.254a8.239 8.239 0 0 1-.915.008c-.364-.042-.517.076-.44.449.017.093.008.195.017.288.068.195.246.152.389.169.403.019.801-.065 1.199-.065z" transform="translate(-255.014 -123.03)" style="fill:#c83e30"/>
                <path id="prefix__XMLID_722_" d="M332.7 301.945c.347.11.652.161.627-.364.669.686 1.143.6 1.541-.271.034-.068.059-.127.152-.119.076-.017.034.254.169.068.542.144.567.169.3.661a1.4 1.4 0 0 1-1.27.8 1.493 1.493 0 0 1-1.519-.775z" class="prefix__cls-15" transform="translate(-266.221 -202.277)"/>
                <path id="prefix__XMLID_721_" d="M283.706 212.082a1.626 1.626 0 0 1-.33 1.109c-.017 0-.042-.008-.059-.008a.67.67 0 0 1-.339-.254.3.3 0 0 1-.025-.119.507.507 0 0 1 .2-.432c.076-.042.161.051.246-.034-.178.008-.2-.11-.195-.237a.827.827 0 0 0-.093-.449c-.279-.694-.517-.864-1.118-.821a.414.414 0 0 0-.33.144c-.212.33-.33.135-.44-.085a.521.521 0 0 1-.042-.1.792.792 0 0 0-.093-.313c-.017-.119-.034-.237.135-.229a5.664 5.664 0 0 1 1.313.051 3.034 3.034 0 0 1-.932.042c.2-.042.576.093.932-.042.652.051 1 .415 1.152 1.2a.843.843 0 0 0 .018.577z" class="prefix__cls-13" transform="translate(-218.972 -119.027)"/>
                <path id="prefix__XMLID_720_" d="M434.048 302.09c.051.11.119.025.178.017a.215.215 0 0 1 .1.22.826.826 0 0 0 .076.567 1.63 1.63 0 0 1-2.591-.635c-.051-.161-.161-.389.127-.432.212-.034.5-.237.618.169a.844.844 0 0 0 .491.542c.076.076.186.042.279.068.474.161.508.135.644-.339z" class="prefix__cls-15" transform="translate(-356.883 -202.787)"/>
                <path id="prefix__XMLID_719_" d="M447.3 212.713c.212-.076.3.169.483.178.093-.076.017-.178.042-.262a.085.085 0 0 1 .051-.085c.025.042.059.093.085.135.212.025.11-.144.11-.212.008-.55.008-1.1 0-1.643 0-.212.093-.271.279-.254.152.008.322-.017.313.22-.025 1.067.051 2.134-.042 3.2a.428.428 0 0 1-.339.008c-.025-.161.085-.127.169-.119-.1-.051-.212.042-.322-.017a.412.412 0 0 1-.1-.212c-.008.093.1.195-.017.288a13.613 13.613 0 0 1-.712-1.225z" class="prefix__cls-16" transform="translate(-371.117 -119.328)"/>
                <path id="prefix__XMLID_718_" d="M317.176 210.966a1.178 1.178 0 0 0-.085.661 13.2 13.2 0 0 0 .085 2.312h-.169c-.127-.085-.169-.178-.051-.3.042-.838-.042-1.685.042-2.523h-.034c-.017.847.017 1.694-.017 2.54a.149.149 0 0 1-.195.051c-.085-.771-.008-1.55-.042-2.32-.008-.135.059-.279-.042-.406a.658.658 0 0 1 .009-.423 13.56 13.56 0 0 1 2.346 0c0 .254.135.576-.313.576-.017-.093-.025-.212-.161-.2a9.25 9.25 0 0 0-1.373.032z" transform="translate(-251.518 -119.266)" style="fill:#c93d32"/>
                <path id="prefix__XMLID_717_" d="M348.84 211.149a1.015 1.015 0 0 1-.161-1.16 1.072 1.072 0 0 1 1.084-.593 1.04 1.04 0 0 1 .9.381.829.829 0 0 1-.406.373.106.106 0 0 1-.1-.025.956.956 0 0 0-.483-.1.436.436 0 0 0-.423.229.34.34 0 0 0 .127.474c.025.127-.11.186-.119.3a.24.24 0 0 1-.068.093.31.31 0 0 1-.351.028z" class="prefix__cls-8" transform="translate(-280.744 -118.256)"/>
                <path id="prefix__XMLID_716_" d="M427.762 124.131c.085-.025.288.025.169-.152a.836.836 0 0 1-.085-.525c-.008-1.228 0-2.456 0-3.684a5.419 5.419 0 0 0-.076-1.27c.212.11.127.279.178.406l.161-.186c.008 1.871.008 3.743.025 5.614 0 .186-.068.254-.246.246-.3-.017-.593-.008-.889-.017.127-.127.288-.085.44-.076.263.008.356-.11.322-.356z" class="prefix__cls-18" transform="translate(-352.536 -35.057)"/>
                <path id="prefix__XMLID_715_" d="M201.943 210.428c-.051-.195.034-.246.22-.237.635.008 1.27.017 1.9 0 .288-.008.263.161.279.347.017.22-.042.33-.3.322-.474-.017-.957-.008-1.431-.008l-.017-.017c-.042-.263.178-.178.279-.186.356-.025.7-.017 1.059-.008-.534-.017-1.075.008-1.609.017-.185-.002-.261-.137-.38-.23z" transform="translate(-146.524 -118.982)" style="fill:#c94133"/>
                <path id="prefix__XMLID_714_" d="M156.954 226.362c-.008.229.347.051.33.288.025-.034.059-.025.085 0a.639.639 0 0 0-.161.61.353.353 0 0 1-.263.5c-.288.1-.288-.144-.33-.3-.144-.576-.279-1.16-.415-1.736.025-.051.042-.11.11-.119a.346.346 0 0 1 .3.229c.017.051.068.059.034.017-.017-.017-.008-.042.008-.076.085-.11.144-.068.2.025.102.173-.085.4.102.562z" class="prefix__cls-4" transform="translate(-104.667 -133.088)"/>
                <path id="prefix__XMLID_713_" d="M280.971 213c.152.068.169.195.152.347-.042.821-.025 1.609-.034 2.4.009-.8-.008-1.609.034-2.4.161-.034.059.432.339.161a.258.258 0 0 1 .051.322.3.3 0 0 0-.169.339c.017.262.008.517.008.779v-.821c0-.093-.042-.246.161-.178a3.112 3.112 0 0 1 .085 1.118c.017.22-.025.457.161.635.076.144.39.076.33.3s-.3.11-.474.136-.339-.051-.474.093c-.22.051-.178-.119-.178-.237-.009-1.004-.001-1.994.008-2.994z" transform="translate(-218.861 -121.554)" style="fill:#c93d2e"/>
                <path id="prefix__XMLID_712_" d="M243.151 96.2c0 2.329.008 4.649-.008 6.978 0 .381.11.474.474.466 1.482-.017 2.955-.008 4.437-.008h.474a.6.6 0 0 1-.44.085c-1.524 0-3.04.008-4.564 0-.254 0-.423.034-.364.339.025.017.034.034.025.042a.044.044 0 0 1-.034.017c-.11-.068-.068-.178-.068-.262v-7.394c0-.085-.051-.195.068-.263z" class="prefix__cls-21" transform="translate(-184.183 -14.645)"/>
                <path id="prefix__XMLID_711_" d="M234.764 211.9c-.034.093-.127.195.025.271a.926.926 0 0 1-.025.915l-.008.008c-.22-.093-.356-.017-.44.2-.051.127-.034.279-.144.381-.1-.051-.068-.144-.068-.22 0-.957.008-1.922-.008-2.879-.008-.288.093-.381.364-.347a7 7 0 0 1 1.262.059c-.237.212-.533.1-.8.127-.169.017-.33 0-.5.017a.251.251 0 0 0-.161.085.181.181 0 0 0 .008.195c.1.246.246.483.042.771-.093.135-.017.347.076.517-.11.271-.025.576-.119.821.33-.11.237-.381.169-.644.008-.11.034-.212-.068-.313a.369.369 0 0 1 0-.466c.127-.152.22-.254.085-.44-.042-.059-.008-.212.068-.212a.469.469 0 0 1 .313.144 1.378 1.378 0 0 1 .008.694c-.13.109-.13.109-.079.316z" class="prefix__cls-22" transform="translate(-175.965 -119.012)"/>
                <path id="prefix__XMLID_710_" d="M77.437 134.69a.279.279 0 0 0 .169.169 4.98 4.98 0 0 1 0 2.032 1.2 1.2 0 0 0 .085.728c.135.415-.161.669-.339.965-.008-.008-.025-.017-.034-.025a.674.674 0 0 0-.119-.144c.051-.229.1-.466.152-.694.11-.127.051-.271.017-.406v-2.625c.018-.034.044-.042.069 0z" class="prefix__cls-23" transform="translate(-32.357 -49.85)"/>
                <path id="prefix__XMLID_709_" d="M415.755 235.173c-.085.034-.195.034-.212-.051-.076-.271-.195-.051-.3-.042l-.025-.017c-.3.008-.246-.254-.322-.415a.867.867 0 0 0 .5-.821.185.185 0 0 0 .034-.042c.068-.008.127.025.186.017.059-.025.093-.085.161-.1a.541.541 0 0 1 .22.11 3.367 3.367 0 0 1-.076 1.363c-.056-.075-.106-.075-.166-.002z" class="prefix__cls-8" transform="translate(-341.461 -140.502)"/>
                <path id="prefix__XMLID_708_" d="M269.94 134.065c-.059-.051-.11-.11-.169-.161a.722.722 0 0 0 .161-.55c-.034-.237-.119-.4-.432-.39-.72.025-1.44.008-2.159.008-.186 0-.39.025-.364-.262.94-.008 1.88-.017 2.828-.017.093 0 .237-.017.22.119-.034.414.127.846-.085 1.253z" class="prefix__cls-24" transform="translate(-206.061 -48.047)"/>
                <path id="prefix__XMLID_707_" d="M347.477 237.51a.772.772 0 0 1-.076-.61c.178 0 .356 0 .525.008-.042.178.068.33.085.491.212.347.542.339.881.3.263-.034.508-.051.644.229a1.461 1.461 0 0 1-1.626.093c-.076-.085-.034-.2-.076-.3-.034-.059-.085-.11-.119-.161-.06-.076-.17.017-.238-.05z" class="prefix__cls-25" transform="translate(-279.644 -143.431)"/>
                <path id="prefix__XMLID_706_" d="M235 242.236a1.087 1.087 0 0 1 .135-.593c.195-.3.3-.263.449.008-.008.085-.017.161-.034.288.347-.373.762-.127 1.126-.229.034.178-.186.127-.178.279.1.076.322-.051.364.169a4.756 4.756 0 0 1-1.862.078z" class="prefix__cls-26" transform="translate(-176.795 -147.581)"/>
                <path id="prefix__XMLID_705_" d="M382.8 217.091c-.2.042-.2-.093-.2-.22l.025-2.913c.195-.051.288.051.347.212.059.813.025 1.617.017 2.43a.842.842 0 0 1-.189.491z" class="prefix__cls-27" transform="translate(-311.896 -122.419)"/>
                <path id="prefix__XMLID_704_" d="M283 241.855c.034-.237.22-.161.356-.178.178-.017.356.051.533-.051-.042-.169-.339.051-.3-.2a6.591 6.591 0 0 0 1.181-.426c0 .034.008.059.008.093.059.144.2.169.322.237l.025.025a.929.929 0 0 1-.847.508c-.423.018-.846-.008-1.278-.008z" class="prefix__cls-28" transform="translate(-220.73 -147.183)"/>
                <path id="prefix__XMLID_703_" d="M244.2 314.085c.728 0 1.465-.008 2.193 0a2.144 2.144 0 0 0 .66-.085c0 .11-.008.229-.008.339a19.959 19.959 0 0 1-2.845 0z" transform="translate(-185.215 -214.002)" style="fill:#3497cd"/>
                <path id="prefix__XMLID_702_" d="M410.732 228.287c-.186 0-.364-.017-.55-.008-.237.017-.381 0-.381-.322s.169-.288.364-.288a4.972 4.972 0 0 0 .711-.008c.44-.068.534.135.449.517-.135.051-.186-.144-.313-.119h-.093c-.119.017-.051.178-.161.195z" class="prefix__cls-8" transform="translate(-336.792 -134.962)"/>
                <path id="prefix__XMLID_701_" d="M77.783 243.332c.144.339-.059.567-.262.788a1.649 1.649 0 0 1-.068-.7 31.171 31.171 0 0 0-.085-3.447c-.017-.127-.042-.246-.068-.373a.71.71 0 0 0 .3-.4c.068.381-.3.686-.008 1.008.034-.135.068-.271.135-.508.11.39-.076.652-.017.923a.147.147 0 0 1 .025.119 1.392 1.392 0 0 0-.076.694c-.008.644.008 1.287-.008 1.922 0 .059-.034.008-.008.034.059.042.017-.051.051-.068a.122.122 0 0 1 .089.008z" class="prefix__cls-13" transform="translate(-32.449 -145.536)"/>
                <path id="prefix__XMLID_700_" d="M532.451 256.677c.237-.169.127-.542.406-.677v2.549a.549.549 0 0 1-.059.364v-2.142h-.085v1.846h-.093v-1.77h-.085c0 .474.008.948 0 1.423 0 .144.059.313-.085.44a10.2 10.2 0 0 1 .001-2.033z" class="prefix__cls-27" transform="translate(-449.011 -160.913)"/>
                <path id="prefix__XMLID_699_" d="M461.178 297.36c-.246-.22-.144-.517-.178-.787.025-.169.059-.339.085-.508.313.042.178-.246.263-.364a1.225 1.225 0 0 1-.17 1.659z" class="prefix__cls-30" transform="translate(-383.657 -197.251)"/>
                <path id="prefix__XMLID_698_" d="M356.624 236.914a.829.829 0 0 0-.745-.119.636.636 0 0 1-.779-.406l.161.11a.92.92 0 0 0 .838.068l.22-.169c.11-.034.076-.127.085-.2.025-.381.135-.457.542-.381a.912.912 0 0 1-.059.771c-.169.034-.127-.068-.135-.144-.059.127-.051.313-.127.474z" transform="translate(-286.724 -142.411)" style="fill:#c93e2f"/>
                <path id="prefix__XMLID_697_" d="M534.19 130.427c.169-.161-.017-.313-.034-.457-.1-.838-.017-1.668-.051-2.507a.435.435 0 0 1-.076-.364c.034-.085.051-.22.195-.1.017.847 0 1.685.009 2.532v-2.286c0-.085-.017-.169.059-.237a5.932 5.932 0 0 1 .051 1.287c.017.855.026 1.7.034 2.557h-.093c-.119-.1-.085-.237-.085-.364a.166.166 0 0 1-.009-.061z" class="prefix__cls-32" transform="translate(-450.495 -42.792)"/>
                <path id="prefix__XMLID_696_" d="M211.485 244.058a5.6 5.6 0 0 0 1.355-.068c.263-.076.271.085.254.271-.017.161.068.406-.254.313-.025-.017-.042-.042-.025-.059s.017-.034.025-.034a4.55 4.55 0 0 0-1.355-.085.325.325 0 0 1 0-.338z" class="prefix__cls-33" transform="translate(-155.227 -149.903)"/>
                <path id="prefix__XMLID_695_" d="M152.879 211.649a3.675 3.675 0 0 1-.279-1.118 1.273 1.273 0 0 1 .618.008c-.008.246.237.423.178.677-.059.093-.1.195-.22.229-.136.026-.127.246-.297.204z" class="prefix__cls-34" transform="translate(-101.372 -119.263)"/>
                <path id="prefix__XMLID_694_" d="M261 101.375a.187.187 0 0 1 .195-.119c.9.017 1.8 0 2.693.042.406.017.567-.11.5-.517a1.013 1.013 0 0 1 .017-.2c.144.229-.017.466.152.686.169-.3.008-.644.135-.965.246.322 0 .686.178.974-.1.152-.254.068-.381.076-1.16.015-2.329.015-3.489.023z" class="prefix__cls-35" transform="translate(-200.593 -18.398)"/>
                <path id="prefix__XMLID_693_" d="M455.861 213.555v-3c0-.178.042-.381-.254-.373s-.246.2-.246.381c0 .525 0 1.042-.008 1.567 0 .059.085.322-.152.127.178-.237.059-.508.076-.762a7.987 7.987 0 0 0 0-1.008c-.008-.246.017-.39.33-.39s.339.127.339.381c-.008.915 0 1.821-.008 2.735-.01.113.062.249-.077.342z" transform="translate(-378.348 -118.9)" style="fill:#cc5041"/>
                <path id="prefix__XMLID_692_" d="M244 189.068a.187.187 0 0 1 .008-.068h5.479c-.034.152-.152.093-.237.093h-5.132a.749.749 0 0 1-.118-.025z" class="prefix__cls-37" transform="translate(-185.032 -99.587)"/>
                <path id="prefix__XMLID_691_" d="M398.454 310.125a.466.466 0 0 1-.423.229c-.618-.009-1.236 0-1.931 0a.959.959 0 0 1 .483-.254c.508.008 1.016.017 1.516.034-.4.22-.821.025-1.228.1.44-.076.889.11 1.329-.1.093-.009.17-.009.254-.009z" transform="translate(-324.253 -210.432)" style="fill:#3396cc"/>
                <path id="prefix__XMLID_690_" d="M385 218.7a23.2 23.2 0 0 0 .085-2.972c.025-.008.042-.017.068-.025a.246.246 0 0 1 .093.093 17.691 17.691 0 0 1 .051 1.9c.008.144-.076.322.127.406.033.63.033.63-.424.598z" class="prefix__cls-39" transform="translate(-314.092 -124.026)"/>
                <path id="prefix__XMLID_689_" d="M387.246 218.2c-.085.034-.085.186-.246.186v-2.557c.288-.076.212.144.2.271a5.163 5.163 0 0 0 .042 1.084v.085a1.052 1.052 0 0 0 0 .847z" class="prefix__cls-27" transform="translate(-315.923 -124.131)"/>
                <path id="prefix__XMLID_688_" d="M210 226.712c0-.034.008-.076.008-.11.44 0 .889.008 1.329-.008.22-.008.313.068.254.288a7.439 7.439 0 0 1-1.3.034c-.139.007-.215-.103-.291-.204z" class="prefix__cls-13" transform="translate(-153.912 -133.996)"/>
                <path id="prefix__XMLID_687_" d="M325.6 226.673a2.643 2.643 0 0 1-1.3.169c-.212.008-.33-.059-.288-.288.432 0 .855 0 1.287.008.106.001.25-.062.301.111z" class="prefix__cls-13" transform="translate(-258.257 -133.957)"/>
                <path id="prefix__XMLID_686_" d="M434.888 232.456c0-.474 0-.948.017-1.431 0-.076-.076-.237.085-.229.22.017 0 .135.025.2a3.87 3.87 0 0 1 .059 1.084c.008.178.068.263.246.254.068.051.059.1.008.161-.16.037-.313.105-.44-.039z" transform="translate(-359.755 -137.844)" style="fill:#c83e2d"/>
                <path id="prefix__XMLID_685_" d="M368 214.239a1.231 1.231 0 0 1 .44-.339.4.4 0 0 1 .2.3c.144.61.051.677-.483.542-.057-.165-.022-.359-.157-.503z" class="prefix__cls-4" transform="translate(-298.532 -122.378)"/>
                <path id="prefix__XMLID_684_" d="M351.8 228.7c.119-.034.237-.059.356-.093a.5.5 0 0 1 .11.017c.017.008.034.008.051.017.288.008.576-.127.864-.042.042.279-.135.4-.347.5a2.1 2.1 0 0 1-1.034-.399z" class="prefix__cls-28" transform="translate(-283.704 -135.806)"/>
                <path id="prefix__XMLID_683_" d="M420.532 216.114a.837.837 0 0 1 .144.288c.008.127.178.339-.017.373-.161.034-.44.195-.559-.127.042-.152.135-.3.169-.457.043-.191.153-.136.263-.077z" class="prefix__cls-9" transform="translate(-346.22 -124.355)"/>
                <path id="prefix__XMLID_682_" d="M270.448 173.6H267.3c-.135 0-.322.085-.4-.127h.1q1.677.013 3.353 0c.121-.016.104.06.095.127z" class="prefix__cls-41" transform="translate(-205.993 -85.374)"/>
                <path id="prefix__XMLID_681_" d="M124.892 81.1h-.263a1.175 1.175 0 0 1-.567.034c-.237-.017-.034-.127-.025-.2-.025-.059-.059-.11-.085-.169a1.64 1.64 0 0 1 .923-.076c-.212.119-.1.229.017.33z" class="prefix__cls-42" transform="translate(-75.146 -.406)"/>
                <path id="prefix__XMLID_680_" d="M156.2 188.892h2.93c.144 0 .313-.051.44.076-1.059.008-2.117.008-3.176.017-.075 0-.177.034-.194-.093z" class="prefix__cls-37" transform="translate(-104.667 -99.478)"/>
                <path id="prefix__XMLID_679_" d="M271.462 173.125a24.747 24.747 0 0 1-3.362 0c1.126-.033 2.244-.033 3.362 0z" class="prefix__cls-5" transform="translate(-207.092 -85.033)"/>
                <path id="prefix__XMLID_678_" d="M156.2 184h3.286v.085H156.2z" class="prefix__cls-21" transform="translate(-104.667 -95.01)"/>
                <path id="prefix__XMLID_677_" d="M364 229.179c.119-.169.229-.33.347-.5a.451.451 0 0 1 .5.195c-.093.313-.254.44-.508.406-.119-.033-.229-.067-.339-.101z" transform="translate(-294.871 -135.887)" style="fill:#c94131"/>
                <path id="prefix__XMLID_676_" d="M368 231.606c.025 0 .076.008.085 0 .068-.212.3-.263.423-.406.2.068.237.237.254.406-.406-.017-.483.322-.627.584a.484.484 0 0 0-.135-.584z" class="prefix__cls-28" transform="translate(-298.532 -138.213)"/>
                <path id="prefix__XMLID_675_" d="M535.033 123.913v2.642h-.1v-2.693c-.068-.068-.127-.144-.085-.237.034-.068.1-.068.161-.017z" transform="translate(-451.237 -39.7)" style="fill:#ca3e2d"/>
                <path id="prefix__XMLID_674_" d="M316.613 215.7c.051 0 .161-.085.144.042-.127.889-.017 1.778-.059 2.667.017.076-.008.119-.093.085-.026-.93-.026-1.861.008-2.794z" transform="translate(-251.472 -124.002)" style="fill:#c93d2d"/>
                <path id="prefix__XMLID_673_" d="M408.1 244.9c.271.017.119.347.322.415-.288.161-.542-.169-.821-.068-.229-.178-.127-.262.085-.322h.085a.294.294 0 0 0 .33-.025z" transform="translate(-334.656 -150.753)" style="fill:#c83f2e"/>
                <path id="prefix__XMLID_672_" d="M447.923 307.8c.161.381-.195.457-.381.635-.051.042-.1 0-.119-.068-.059-.22-.313-.161-.423-.3a1 1 0 0 0 .923-.267z" transform="translate(-370.842 -208.327)" style="fill:#3997cd"/>
                <path id="prefix__XMLID_671_" d="M202.1 213a1.224 1.224 0 0 0 .872.169 5.832 5.832 0 0 1 1.211.085c-.3 0-.61-.008-.915 0-.186.008-.39-.042-.525.152-.2-.127-.491-.093-.644-.322a.144.144 0 0 0 .001-.084z" class="prefix__cls-48" transform="translate(-146.681 -121.554)"/>
                <path id="prefix__XMLID_670_" d="M244.2 318h2.845c-.119.144-.288.068-.432.076-.677.008-1.355.008-2.024 0-.126-.008-.279.068-.389-.076z" transform="translate(-185.215 -217.663)" style="fill:#459bd3"/>
                <path id="prefix__XMLID_669_" d="M533.056 116.8c-.22.025-.042.169-.076.254a.172.172 0 0 0-.085.169c-.237-.025-.051-.254-.169-.339a1.028 1.028 0 0 0-.025-.728c.161-.085.178.093.271.135a.878.878 0 0 1 .084.509z" transform="translate(-449.285 -32.891)" style="fill:#c8402f"/>
                <path id="prefix__XMLID_668_" d="M356.085 226.247l-.085-.085v-.085c.068-.152.212-.144.339-.178a1.522 1.522 0 0 1 .686.246c-.313-.008-.61.263-.94.1.051-.051.127-.034.178-.068-.063.023-.127.023-.178.07z" transform="translate(-287.548 -133.362)" style="fill:#c9402f"/>
                <path id="prefix__XMLID_667_" d="M220.994 147.508c-.22-.119-.186.212-.373.186a.523.523 0 0 1 .135-.694.887.887 0 0 1 .238.508z" transform="translate(-163.568 -61.143)" style="fill:#1f6aae"/>
                <path id="prefix__XMLID_666_" d="M319.346 210.016H317a10.169 10.169 0 0 1 1.965-.068c.127-.008.279-.076.381.068z" transform="translate(-251.851 -118.74)" style="fill:#cb4a3a"/>
                <path id="prefix__XMLID_665_" d="M439.539 227.193c0-.051-.008-.11-.008-.161v-1.626a.561.561 0 0 1 .008-.406c.076 0 .144.017.169.1-.178.135-.076.33-.093.5a7.7 7.7 0 0 1-.076 1.593z" transform="translate(-363.975 -132.538)" style="fill:#ca4639"/>
                <path id="prefix__XMLID_664_" d="M236 210.957a6.04 6.04 0 0 1 1.465-.093.353.353 0 0 1 .322.093c-.085.127-.22.076-.339.093h-.212a4.009 4.009 0 0 1-1.236-.093z" transform="translate(-177.71 -119.596)" style="fill:#ca402f"/>
                <path id="prefix__XMLID_663_" d="M208.719 228c.508.313 1.067.11 1.592.169v.085a8.436 8.436 0 0 1-1.533-.051c-.11-.034-.305-.051-.059-.203z" class="prefix__cls-56" transform="translate(-152.63 -135.284)"/>
                <path id="prefix__XMLID_662_" d="M419.433 213.313c-.3.051-.237.4-.423.533a.086.086 0 0 1-.017-.076c-.042-.212.347-.474-.093-.627.051-.127.161-.119.271-.144a.466.466 0 0 1 .262.314z" transform="translate(-345.122 -121.555)" style="fill:#c93f2f"/>
                <path id="prefix__XMLID_661_" d="M386.879 213.782a2.222 2.222 0 0 1-.093-.915c.008-.161.127-.373-.152-.44a.17.17 0 0 1-.034-.11c.025-.093.042-.22.144-.22.169-.008.042.186.135.246z" class="prefix__cls-39" transform="translate(-315.557 -120.728)"/>
                <path id="prefix__XMLID_660_" d="M319.423 160.9c.178.169.44-.025.652.161-.4.212-.728-.025-1.075-.093.119-.168.288-.056.423-.068z" transform="translate(-253.681 -73.845)" style="fill:#1868ac"/>
                <path id="prefix__XMLID_659_" d="M383.451 210.316c-.085-.212-.161-.169-.246 0-.093-.093-.246-.085-.347-.169-.042-.406.271-.22.423-.229.314 0 .153.245.17.398z" class="prefix__cls-27" transform="translate(-312.128 -118.701)"/>
                <path id="prefix__XMLID_658_" d="M206.948 249.819v.093a16.614 16.614 0 0 1-1.948 0c.279-.195.6-.068.9-.085.345-.027.7-.008 1.048-.008z" transform="translate(-149.335 -155.24)" style="fill:#ca3f2e"/>
                <path id="prefix__XMLID_657_" d="M323 214.6c.415-.186.872.008 1.279-.1.33-.085.3.034.246.254h-.085c-.042-.2-.212-.152-.339-.152z" class="prefix__cls-48" transform="translate(-257.343 -122.905)"/>
                <path id="prefix__XMLID_656_" d="M334.7 185.995a4.439 4.439 0 0 0 .965-.195c-.025.39-.432.161-.534.381a.936.936 0 0 1-.431-.186z" class="prefix__cls-60" transform="translate(-268.052 -96.658)"/>
                <path id="prefix__XMLID_655_" d="M382.991 111.677c-.237-.178-.618-.322-.178-.677a1.014 1.014 0 0 1 .178.677z" class="prefix__cls-61" transform="translate(-311.906 -28.192)"/>
                <path id="prefix__XMLID_654_" d="M405.623 310.4c-.042.178-.186.136-.3.136-.373 0-.745 0-1.118-.025.44-.119.9.025 1.33-.11z" class="prefix__cls-7" transform="translate(-331.667 -210.707)"/>
                <path id="prefix__XMLID_653_" d="M387.926 233.847c-.195-.279-.288-.559 0-.847z" class="prefix__cls-39" transform="translate(-316.603 -139.861)"/>
                <path id="prefix__XMLID_652_" d="M128.6 337.791c.1-.068.271-.025.339-.169a.13.13 0 0 1 .178 0c.085.6-.3.263-.517.254-.034-.017-.042-.034-.034-.059s.026-.026.034-.026z" transform="translate(-79.372 -235.591)" style="fill:#c53e2c"/>
                <path id="prefix__XMLID_651_" d="M326.337 101.7c.119.212.3.042.457.093-.254-.017-.381.415-.694.186a.482.482 0 0 1 .237-.279z" transform="translate(-260.18 -19.679)" style="fill:#1b69aa"/>
                <path id="prefix__XMLID_650_" d="M202.2 233a2.924 2.924 0 0 1 0 1.431z" class="prefix__cls-33" transform="translate(-146.772 -139.861)"/>
                <path id="prefix__XMLID_649_" d="M158.957 222.908c-.051-.008-.11-.093-.161 0a.508.508 0 0 1-.3-.322.264.264 0 0 1 .119-.135.191.191 0 0 1 .254.119.535.535 0 0 1 .088.338z" class="prefix__cls-64" transform="translate(-106.773 -130.192)"/>
                <path id="prefix__XMLID_648_" d="M224.229 159.677a1.631 1.631 0 0 1-.229-.593c.085-.025.161-.059.246-.085a2.024 2.024 0 0 1-.017.678z" transform="translate(-166.726 -72.127)" style="fill:#1768ab"/>
                <path id="prefix__XMLID_647_" d="M534.338 248.094c-.288-.119-.076.254-.245.254a.675.675 0 0 1-.034-.584c.025-.127.093-.152.2-.093.034.085-.144.237.085.254.003.059-.006.11-.006.169z" class="prefix__cls-27" transform="translate(-450.483 -153.262)"/>
                <path id="prefix__XMLID_646_" d="M156.156 220.922l-.085.085c-.051.068-.085.135-.169.169-.025.025-.051.059-.076.085l-.025-.246c.169 0-.025-.381.262-.262.034.034.093.042.119.085a.066.066 0 0 1-.026.084z" transform="translate(-104.301 -128.63)" style="fill:#c73c2b"/>
                <path id="prefix__XMLID_645_" d="M405.515 243.919c-.119.085-.195.178-.085.322-.313.008-.254-.263-.33-.44.136.041.271.075.415.118z" class="prefix__cls-8" transform="translate(-332.49 -149.746)"/>
                <path id="prefix__XMLID_644_" d="M258.978 242.592c.017-.262-.339.135-.271-.144.051-.186.246-.161.406-.093-.033.093-.033.195-.135.237z" transform="translate(-198.486 -148.377)" style="fill:#c94232"/>
                <path id="prefix__XMLID_643_" d="M373.059 243.333a.763.763 0 0 1 .1-.533c.059.068.11.127.161.195-.007.169-.201.205-.261.338z" transform="translate(-303.159 -148.831)" style="fill:#c83f35"/>
                <path id="prefix__XMLID_642_" d="M357.838 244.168a.617.617 0 0 1-.838-.068 1.662 1.662 0 0 0 .838.068z" class="prefix__cls-25" transform="translate(-288.464 -150.021)"/>
                <path id="prefix__XMLID_641_" d="M76.071 179.993c.017.1.195.229-.042.271-.025.008-.085-.186-.229-.11a.351.351 0 0 1 .093-.254.282.282 0 0 1 .178.093z" class="prefix__cls-23" transform="translate(-31.076 -91.257)"/>
                <path id="prefix__XMLID_640_" d="M349.986 243.939l.169.169a.254.254 0 0 1-.169.254.389.389 0 0 1-.186-.246c.034-.084.034-.211.186-.177z" class="prefix__cls-69" transform="translate(-281.873 -149.869)"/>
                <path id="prefix__XMLID_639_" d="M192.752 210.009c-.195.195-.457-.119-.652.085.186-.288.423-.153.652-.085z" class="prefix__cls-70" transform="translate(-137.527 -118.733)"/>
                <path id="prefix__XMLID_638_" d="M348.325 236.1a.458.458 0 0 1-.525-.008.474.474 0 0 1 .525.008z" class="prefix__cls-69" transform="translate(-280.043 -142.618)"/>
                <path id="prefix__XMLID_637_" d="M131.073 81.43c-.152 0-.22-.161-.373-.2.135-.042.246-.085.356-.127a.491.491 0 0 1 .017.327z" transform="translate(-81.327 -.824)" style="fill:#c73e2b"/>
                <path id="prefix__XMLID_636_" d="M454.939 244.908c.034-.178-.135-.322-.076-.508a.4.4 0 0 1 .169.4.123.123 0 0 1 0 .178.075.075 0 0 1-.093-.07z" transform="translate(-378.028 -150.296)" style="fill:#c93d2b"/>
                <path id="prefix__XMLID_635_" d="M113.508 98.188c0 .034.008.068.008.1-.025.068-.085.076-.144.085-.127-.034-.271.025-.373-.1.162-.059.301-.273.509-.085z" transform="translate(-65.126 -16.396)" style="fill:#c6412d"/>
                <path id="prefix__XMLID_634_" d="M79.2 129.417h-.068a.991.991 0 0 1 .059-.517c.068.008.178 0 .195.034.068.127-.068.051-.1.085-.142.11-.058.271-.086.398z" transform="translate(-34.123 -44.576)" style="fill:#c94337"/>
                <path id="prefix__XMLID_633_" d="M172.752 209.947c-.229 0-.466-.034-.652.169.119-.448.415-.203.652-.169z" transform="translate(-119.221 -118.671)" style="fill:#ca4535"/>
                <path id="prefix__XMLID_632_" d="M423.8 231.076c.279-.279.169.22.33.169v.085c-.127.1-.169-.042-.246-.085s-.14-.076-.084-.169z" class="prefix__cls-76" transform="translate(-349.585 -138.022)"/>
                <path id="prefix__XMLID_631_" d="M132.81 328h.093a2.868 2.868 0 0 1 0 .762c-.085.068-.144.051-.2-.042a.5.5 0 0 1 .017-.119c.039-.201-.062-.423.09-.601z" class="prefix__cls-77" transform="translate(-83.157 -226.816)"/>
                <path id="prefix__XMLID_630_" d="M50.508 200.1a.369.369 0 0 1-.508.152z" class="prefix__cls-70" transform="translate(-7.46 -109.747)"/>
                <path id="prefix__XMLID_629_" d="M124.423 338.559v.085a.609.609 0 0 1-.423-.076c.017-.1.051-.212.169-.085a.349.349 0 0 0 .254.076z" class="prefix__cls-78" transform="translate(-75.194 -236.359)"/>
                <path id="prefix__XMLID_628_" d="M355.826 225.146c-.085.119-.237.093-.339.178-.169-.229.169-.127.169-.246a.167.167 0 0 1 .17.068z" class="prefix__cls-28" transform="translate(-287.036 -132.608)"/>
                <path id="prefix__XMLID_627_" d="M517.1 172.979c.11-.068.042-.212.152-.279-.076.119.263.364-.144.373a.315.315 0 0 0-.008-.094z" transform="translate(-435.006 -84.667)" style="fill:#c93f2d"/>
                <path id="prefix__XMLID_626_" d="M348.979 242.533c-.059.059-.127.119-.186.178-.076-.034-.076-.1-.093-.161l.2-.127c.051-.034.1-.042.127.025.012.017-.027.052-.048.085z" transform="translate(-280.866 -148.462)" style="fill:#c6402d"/>
                <path id="prefix__XMLID_625_" d="M60.9 209.021h-.3a.617.617 0 0 1 .627-.025.137.137 0 0 1-.076.025.192.192 0 0 1-.251 0z" transform="translate(-17.163 -117.821)" style="fill:#c83e2c"/>
                <path id="prefix__XMLID_624_" d="M384.7 147.163c-.076.051-.152.1-.3.195.068-.195.161-.313.135-.457a.338.338 0 0 1 .165.262z" transform="translate(-313.543 -61.052)" style="fill:#236ba9"/>
                <path id="prefix__XMLID_623_" d="M352 246.254c.059-.085.11-.169.169-.254.152.119-.034.237-.008.356-.068-.017-.153 0-.161-.102z" transform="translate(-283.887 -151.76)" style="fill:#c53f2a"/>
                <path id="prefix__XMLID_622_" d="M367.268 217.9c.22.11.161.313.169.5-.076-.169-.161-.33-.237-.5a.094.094 0 0 0 .068 0z" class="prefix__cls-84" transform="translate(-297.8 -126.04)"/>
                <path id="prefix__XMLID_621_" d="M316.9 248.085c.034-.025.059-.059.093-.085h.169c.025.085.059.169.085.254-.169.059-.296.025-.347-.169z" transform="translate(-251.759 -153.591)" style="fill:#c93e2c"/>
                <path id="prefix__XMLID_620_" d="M382.9 213c.135.017.313-.059.347.169v.085h-.085c-.085-.059-.178-.11-.263-.169z" transform="translate(-312.17 -121.554)" style="fill:#ca3e2c"/>
                <path id="prefix__XMLID_619_" d="M153.218 210.093c-.2 0-.406-.008-.618-.008a.641.641 0 0 1 .618.008z" transform="translate(-101.372 -118.817)" style="fill:#ca4737"/>
                <path id="prefix__XMLID_618_" d="M457 249.178V249h.373c-.093.076-.152.127-.2.169a1.133 1.133 0 0 0-.173.009z" transform="translate(-379.995 -154.506)" style="fill:#c2402a"/>
                <path id="prefix__XMLID_617_" d="M310.944 225.593a.5.5 0 0 1-.017-.593 2 2 0 0 1 .017.593z" class="prefix__cls-89" transform="translate(-246.21 -132.538)"/>
                <path id="prefix__XMLID_616_" d="M360.169 301.268c-.008.1.025.22-.119.279l-.051-.347a1.409 1.409 0 0 0 .17.068z" transform="translate(-291.209 -202.286)" style="fill:#3596c9"/>
                <path id="prefix__XMLID_615_" d="M545 229.347a.353.353 0 0 1 .339-.347c-.11.119-.22.229-.339.347z" class="prefix__cls-91" transform="translate(-460.544 -136.2)"/>
                <path id="prefix__XMLID_614_" d="M129.613 335.758a.185.185 0 0 0 .178.085v.085h-.491c.11-.076.169-.127.229-.169.025-.034.059-.026.084-.001z" class="prefix__cls-78" transform="translate(-80.045 -233.897)"/>
                <path id="prefix__XMLID_613_" d="M436.988 112.381c-.152.008-.186-.127-.288-.2.135-.1.212.025.3.042 0 .057 0 .108-.012.158z" transform="translate(-361.414 -29.235)" style="fill:#1767a7"/>
                <path id="prefix__XMLID_612_" d="M78.917 166a.445.445 0 0 1 .051.423c0 .008-.025.008-.034.008s-.025-.017-.034-.025c.008-.135.017-.27.017-.406z" transform="translate(-33.913 -78.534)" style="fill:#ce3b2c"/>
                <path id="prefix__XMLID_611_" d="M64.2 210.1c.085 0 .161.008.246.008.025.051.051.093.076.144-.136.009-.28.034-.322-.152z" transform="translate(-20.458 -118.9)" style="fill:#ebb2ae"/>
                <path id="prefix__XMLID_610_" d="M112.149 83.2c-.1.186-.279.152-.449.144a.967.967 0 0 1 .449-.144z" class="prefix__cls-42" transform="translate(-63.936 -2.746)"/>
                <path id="prefix__XMLID_609_" d="M202.2 218a.419.419 0 0 1 0 .5z" transform="translate(-146.772 -126.131)" style="fill:#c3402b"/>
                <path id="prefix__XMLID_608_" d="M262.181 236.169c-.051.034-.1.059-.152.093-.034-.127-.025-.237.144-.263-.001.06.008.111.008.17z" transform="translate(-201.519 -142.607)" style="fill:#cd3c2b"/>
                <path id="prefix__XMLID_607_" d="M538.136 176.339c-.135-.085-.237-.178-.093-.339a.6.6 0 0 1 .093.339z" class="prefix__cls-32" transform="translate(-454.112 -87.688)"/>
                <path id="prefix__XMLID_606_" d="M160 220.9v-.085c.042-.068.093-.144.195-.093a.3.3 0 0 1 .059.263c-.085-.027-.169-.061-.254-.085z" class="prefix__cls-34" transform="translate(-108.146 -128.607)"/>
                <path id="prefix__XMLID_605_" d="M385.676 122.137c-.093-.195.051-.161.161-.161.026.135-.017.203-.161.161z" class="prefix__cls-61" transform="translate(-314.684 -38.236)"/>
                <path id="prefix__XMLID_604_" d="M159.279 219.161a2.038 2.038 0 0 1-.195.093l-.085-.085.246-.169c.009.051.026.11.034.161z" class="prefix__cls-64" transform="translate(-107.23 -127.046)"/>
                <path id="prefix__XMLID_603_" d="M77.115 178.876a.159.159 0 0 1-.169-.093.065.065 0 0 1 .017-.076c.211-.093.137.076.152.169z" class="prefix__cls-4" transform="translate(-32.119 -90.141)"/>
                <path id="prefix__XMLID_602_" d="M263.907 173.4c-.017.059.034.152-.076.161a.161.161 0 0 1-.11-.042c-.034-.076.059-.068.085-.119a.409.409 0 0 0 .101 0z" class="prefix__cls-41" transform="translate(-203.077 -85.308)"/>
                <path id="prefix__XMLID_601_" d="M451.8 232.437c-.254-.076.008-.161 0-.237.093.008.085.076.1.144l-.025.025a.192.192 0 0 1-.075.068z" class="prefix__cls-16" transform="translate(-375.134 -139.129)"/>
                <path id="prefix__XMLID_600_" d="M46.163 202.042c-.068.093-.135.237-.263.059a.3.3 0 0 1 .263-.059z" class="prefix__cls-70" transform="translate(-3.708 -111.52)"/>
                <path id="prefix__XMLID_599_" d="M68.2 229a.236.236 0 0 1 .237.254c-.076-.085-.161-.169-.237-.254z" transform="translate(-24.119 -136.2)" style="fill:#cb4836"/>
                <path id="prefix__XMLID_598_" d="M42.1 205h.339l-.339.169z" class="prefix__cls-70" transform="translate(-.229 -114.232)"/>
                <path id="prefix__XMLID_597_" d="M425 249.082c.008-.076.008-.195.1-.186.11 0 .051.127.068.186z" transform="translate(-350.705 -154.41)" style="fill:#c5402a"/>
                <path id="prefix__XMLID_596_" d="M411.339 244.9c-.11.076-.212.246-.339.025z" class="prefix__cls-8" transform="translate(-337.891 -150.753)"/>
                <path id="prefix__XMLID_595_" d="M532.451 125c.136.076.034.262.169.339v.339a6.7 6.7 0 0 0-.085 1.643c-.025.212.085.449-.085.644a13.881 13.881 0 0 1 0-2.371z" transform="translate(-449.011 -41.006)" style="fill:#cb3d31"/>
                <path id="prefix__XMLID_594_" d="M531.867 132v2.371a4.82 4.82 0 0 1-.076-1.558 1.278 1.278 0 0 1 .076-.813z" transform="translate(-448.427 -47.414)" style="fill:#c53f2d"/>
                <path id="prefix__XMLID_593_" d="M531.833 264v2.032a4.837 4.837 0 0 1 0-2.032z" class="prefix__cls-48" transform="translate(-448.393 -168.236)"/>
                <path id="prefix__XMLID_592_" d="M533.7 244.979c-.339.152-.093.457-.169.677h-.085a.662.662 0 0 1 0-.508v-.448c.14.076.254.127.254.279z" transform="translate(-449.926 -150.57)" style="fill:#c73f2a"/>
                <path id="prefix__XMLID_591_" d="M533.445 175.7c.034.119.068.229.11.347-.305-.059-.305-.059-.11-.347z" class="prefix__cls-32" transform="translate(-449.844 -87.413)"/>
                <path id="prefix__XMLID_590_" d="M485.444 336.869h-.644c.2-.051.415-.228.644 0z" transform="translate(-405.441 -234.83)" style="fill:#c63e2c"/>
                <path id="prefix__XMLID_589_" d="M545.057 225c-.119.11-.186.212-.3.127-.025-.017-.042-.093-.025-.11.079-.098.181-.056.325-.017z" class="prefix__cls-91" transform="translate(-460.287 -132.5)"/>
                <path id="prefix__XMLID_588_" d="M534.125 168.423c-.339-.144-.093-.279 0-.423a.526.526 0 0 1 0 .423z" class="prefix__cls-32" transform="translate(-450.431 -80.365)"/>
                <path id="prefix__XMLID_587_" d="M510.669 92.09a.119.119 0 0 1-.127.093c-.059 0-.127-.008-.1-.085.009-.025.059-.051.093-.059.058-.008.117-.017.134.051z" transform="translate(-428.906 -10.831)" style="fill:#c63e2a"/>
                <path id="prefix__XMLID_586_" d="M541.366 229.263c-.017.025-.042.085-.085.1-.059.025-.1-.025-.093-.085a.1.1 0 0 1 .1-.1c.044-.008.078.009.078.085z" class="prefix__cls-91" transform="translate(-457.054 -136.361)"/>
                <path id="prefix__XMLID_585_" d="M492.186 337.712c-.11-.017-.186-.059-.186-.178.093.025.186-.1.262-.009s-.093.11-.076.186z" class="prefix__cls-104" transform="translate(-412.032 -235.503)"/>
                <path id="prefix__XMLID_584_" d="M485.349 81.859c-.135.144-.288.1-.449.025l.449-.025z" class="prefix__cls-105" transform="translate(-405.533 -1.515)"/>
                <path id="prefix__XMLID_583_" d="M532.97 250v.508a.387.387 0 0 1 0-.508z" transform="translate(-449.445 -155.421)" style="fill:#c83d36"/>
                <path id="prefix__XMLID_582_" d="M536 168.423V168c.144.119.068.279.085.423-.026.06-.06.06-.085 0z" class="prefix__cls-105" transform="translate(-452.306 -80.365)"/>
                <path id="prefix__XMLID_581_" d="M81.025 256.085V256h.085a18.089 18.089 0 0 1 0 2.71h-.085a.43.43 0 0 1-.076-.135c-.025-.728-.008-1.465-.008-2.193a.41.41 0 0 1 .084-.297z" transform="translate(-35.776 -160.913)" style="fill:#cc3b2d"/>
                <path id="prefix__XMLID_580_" d="M83 258.71V256c.127.11.085.263.085.39.008.644.008 1.287 0 1.922 0 .144.042.288-.085.398z" class="prefix__cls-108" transform="translate(-37.666 -160.913)"/>
                <path id="prefix__XMLID_579_" d="M82.451 136c.178.313.068.652.076.982.017.373 0 .754-.008 1.126 0 .008-.017.017-.025.017s-.025-.008-.042-.008a11.051 11.051 0 0 1-.001-2.117z" transform="translate(-37.117 -51.075)" style="fill:#c43f33"/>
                <path id="prefix__XMLID_578_" d="M82.085 136v2.117H82v-2.032z" transform="translate(-36.751 -51.075)" style="fill:#cd3b2d"/>
                <path id="prefix__XMLID_577_" d="M112.246 96.432c-.186-.068-.33.093-.508.085-.017-.076-.2-.11-.068-.229.059-.051.11-.178.2-.008.068.127.161-.025.254-.025.147.008.176.059.122.177z" class="prefix__cls-111" transform="translate(-63.863 -14.64)"/>
                <path id="prefix__XMLID_576_" d="M70.288 226.65a.445.445 0 0 0-.288-.55c.432.025.483.127.288.55z" class="prefix__cls-108" transform="translate(-25.767 -133.545)"/>
                <path id="prefix__XMLID_575_" d="M121.979 84c.127.3.39.119.593.169-.271.169-.559.051-.872.085.076-.144.135-.246.279-.254z" transform="translate(-73.089 -3.478)" style="fill:#c63f2b"/>
                <path id="prefix__XMLID_574_" d="M128.332 327.739h-.085c-.042-.254.169-.61-.347-.686.2-.1.322-.11.432.008a1.155 1.155 0 0 1 0 .677z" class="prefix__cls-77" transform="translate(-78.764 -225.878)"/>
                <path id="prefix__XMLID_573_" d="M99.471 90.74c-.051 0-.169.085-.135-.025.076-.22.229-.246.39-.059a.225.225 0 0 1-.255.084z" transform="translate(-52.612 -9.456)" style="fill:#c53e2b"/>
                <path id="prefix__XMLID_572_" d="M133 328.677V328h.085c-.034.229.084.466-.085.677z" transform="translate(-83.432 -226.816)" style="fill:#ca3b35"/>
                <path id="prefix__XMLID_571_" d="M57.613 203.261a.328.328 0 0 1-.119.051c-.059 0-.1-.042-.076-.1.008-.025.068-.042.1-.034s.062.049.095.083z" class="prefix__cls-104" transform="translate(-14.244 -112.561)"/>
                <path id="prefix__XMLID_570_" d="M101 92.085c.085-.025.169-.059.254-.085.076.076.008.119-.051.144a.146.146 0 0 1-.203-.059z" transform="translate(-54.142 -10.801)" style="fill:#cb3e34"/>
                <path id="prefix__XMLID_569_" d="M174.552 148.619c.313 0 .618-.017.931 0a.905.905 0 0 1 .923.906.987.987 0 0 1-.788 1.126 12.409 12.409 0 0 1-2.024.059c-.144.008-.195-.076-.195-.212 0-.567.008-1.126 0-1.694 0-.2.11-.229.271-.22h.889c-.007.026-.007.026-.007.035z" transform="translate(-120.411 -62.593)" style="fill:#fefeff"/>
                <path id="prefix__XMLID_568_" d="M174.254 113.981a3.4 3.4 0 0 0-.72.008c-.356.085-.356-.093-.347-.347.008-.381.017-.762-.008-1.143-.017-.22.076-.279.262-.271a14.16 14.16 0 0 1 1.9.051.71.71 0 0 1 .7.745.755.755 0 0 1-.61.881.893.893 0 0 1-.2.051c-.322.008-.652 0-.974 0z" transform="translate(-120.207 -29.31)" style="fill:#fdfefe"/>
                <path id="prefix__XMLID_567_" d="M211.468 131.679c-.085-.135-.237-.263-.059-.4.034-.025.135-.042.152-.017.118.163-.068.265-.093.417z" class="prefix__cls-118" transform="translate(-155.125 -46.729)"/>
                <path id="prefix__XMLID_566_" d="M221.328 166.1c-.22.169-.051.4-.093.669-.187-.305-.204-.508.093-.669z" class="prefix__cls-119" transform="translate(-164.071 -78.626)"/>
                <path id="prefix__XMLID_565_" d="M213 128.107a.555.555 0 0 1 .652.051c-.288-.017-.474.093-.652-.051z" class="prefix__cls-118" transform="translate(-156.658 -43.774)"/>
                <path id="prefix__XMLID_564_" d="M221.179 118.293a.692.692 0 0 1 0-.593z" class="prefix__cls-120" transform="translate(-164.083 -34.325)"/>
                <path id="prefix__XMLID_563_" d="M205.1 103.2h.474v.042h-.474a.038.038 0 0 0 0-.042z" transform="translate(-149.426 -21.052)" style="fill:#1669aa"/>
                <path id="prefix__XMLID_562_" d="M220.454 160.6c.152.169.11.279.093.466a.547.547 0 0 1-.093-.466z" class="prefix__cls-119" transform="translate(-163.468 -73.592)"/>
                <path id="prefix__XMLID_561_" d="M196.4 145.2h.44c-.169.161-.279.1-.44 0z" transform="translate(-141.463 -59.496)" style="fill:#1968a8"/>
                <path id="prefix__XMLID_560_" d="M208.659 148.678a.349.349 0 0 1-.068-.1c-.008-.017.051-.051.076-.076a.379.379 0 0 1 .093.11c.017.04-.016.083-.101.066z" transform="translate(-152.621 -62.516)" style="fill:#1966a7"/>
                <path id="prefix__XMLID_559_" d="M208.495 152.137c.008.051-.025.068-.068.059s-.119.034-.127-.051c0-.017.034-.042.051-.051.059-.016.11-.016.144.043z" transform="translate(-152.355 -65.798)" style="fill:#1768a8"/>
                <path id="prefix__XMLID_558_" d="M221.069 112.1a.205.205 0 0 1 .017.263c-.086-.094-.034-.178-.017-.263z" class="prefix__cls-120" transform="translate(-164.015 -29.199)"/>
                <path id="prefix__XMLID_557_" d="M211.263 125.888c-.169-.017-.186-.119-.135-.288l.135.288z" class="prefix__cls-118" transform="translate(-154.921 -41.556)"/>
                <path id="prefix__XMLID_556_" d="M221.694 158.512c-.076-.017-.169.034-.212-.076-.008-.017.017-.059.034-.059.1-.017.135.068.178.135z" class="prefix__cls-119" transform="translate(-164.42 -71.554)"/>
                <path id="prefix__XMLID_555_" d="M357.382 104.14c-.2.161-.39.127-.534.195-.169-.11.4-.152-.025-.262.203-.12.364.007.559.067z" class="prefix__cls-35" transform="translate(-288.295 -21.806)"/>
                <path id="prefix__XMLID_554_" d="M349.539 105.1c.085.017.22.017.246.144.017.093-.1.119-.178.135-.135.025-.2-.068-.229-.178-.017-.084.076-.101.161-.101z" class="prefix__cls-21" transform="translate(-281.485 -22.792)"/>
                <path id="prefix__XMLID_553_" d="M340.3 104.58c.254-.144.466-.152.635.068-.186-.118-.398.127-.635-.068z" class="prefix__cls-21" transform="translate(-273.178 -22.221)"/>
                <path id="prefix__XMLID_552_" d="M336.325 184.078c-.169.144-.347.034-.525.042.169-.12.347-.059.525-.042z" class="prefix__cls-60" transform="translate(-269.059 -95.054)"/>
                <path id="prefix__XMLID_551_" d="M381.3 177.671c0-.152.076-.2.195-.271.017.144-.059.2-.195.271z" transform="translate(-310.706 -88.969)" style="fill:#1868aa"/>
                <path id="prefix__XMLID_550_" d="M381.2 117.835c-.068.017-.1-.008-.1-.051a.132.132 0 0 1 .051-.085 1 1 0 0 1 .127.076.6.6 0 0 0-.078.06z" class="prefix__cls-61" transform="translate(-310.523 -34.325)"/>
                <path id="prefix__XMLID_549_" d="M270.959 144.981H268.3a5.636 5.636 0 0 1 2.659 0z" class="prefix__cls-24" transform="translate(-207.275 -59.15)"/>
                <path id="prefix__XMLID_548_" d="M425.492 120c.135.127.085.288.085.44v4.979l-.085-.085a.554.554 0 0 1-.042-.33v-4.674a.554.554 0 0 1 .042-.33z" transform="translate(-351.112 -36.43)" style="fill:#136aaf"/>
                <path id="prefix__XMLID_547_" d="M425.036 120v5.335c-.119-.093-.085-.229-.085-.356v-4.632c.001-.118-.033-.254.085-.347z" transform="translate(-350.657 -36.43)" style="fill:#1c65b0"/>
                <path id="prefix__XMLID_546_" d="M427 183.9c.254.034.525-.085.762.085-.254-.034-.525.085-.762-.085z" class="prefix__cls-18" transform="translate(-352.536 -94.911)"/>
                <path id="prefix__XMLID_545_" d="M221.1 274.2c.127.042.254.085.449.144-.254.135-.364 0-.449-.144z" transform="translate(-164.072 -177.572)" style="fill:#3496c9"/>
                <path id="prefix__XMLID_544_" d="M197.929 304.443c-.076.068-.1.093-.11.093a.153.153 0 0 1-.119-.144c0-.008.051-.025.068-.017a.921.921 0 0 1 .161.068z" transform="translate(-142.653 -205.19)" style="fill:#3397ca"/>
                <path id="prefix__XMLID_543_" d="M163.732 282.3c.152.44.254.8.4 1.152.1.254-.008.279-.22.279-.838-.008-.66.059-.466-.61.066-.254.167-.491.286-.821z" transform="translate(-111.149 -184.986)" style="fill:#f9fbfc"/>
                <path id="prefix__XMLID_542_" d="M173.032 277.69c-.034-.186-.076-.288.059-.39.119.127.034.22-.059.39z" transform="translate(-120.043 -180.41)" style="fill:#3497cb"/>
                <path id="prefix__XMLID_541_" d="M406.57 293.242h-1.27v-.042h1.279a.064.064 0 0 0-.009.042z" transform="translate(-332.673 -194.963)" style="fill:#3495ca"/>
                <path id="prefix__XMLID_540_" d="M169.084 233.149H169a.57.57 0 0 1 .127-.449.394.394 0 0 1-.043.449z" class="prefix__cls-133" transform="translate(-116.382 -139.586)"/>
                <path id="prefix__XMLID_539_" d="M193.131 223.909c-.017.025-.034.076-.068.085-.093.025-.076-.059-.076-.1s.025-.1.042-.1c.077-.012.093.038.102.115z" transform="translate(-138.338 -131.43)" style="fill:#c93d38"/>
                <path id="prefix__XMLID_538_" d="M186.029 240.1a.194.194 0 0 1 .025.254c-.101-.076-.017-.169-.025-.254z" transform="translate(-131.947 -146.36)" style="fill:#c63e2b"/>
                <path id="prefix__XMLID_537_" d="M460 295.778c.017-.085.051-.178.127-.051a.72.72 0 0 1 .042.3c-.059-.085-.11-.169-.169-.254z" class="prefix__cls-30" transform="translate(-382.741 -197.219)"/>
                <path id="prefix__XMLID_536_" d="M457.717 297a.367.367 0 0 1-.2.2c-.042-.186.093-.178.2-.2z" transform="translate(-380.459 -198.441)" style="fill:#3499ca"/>
                <path id="prefix__XMLID_535_" d="M398.811 242.393a.3.3 0 0 1-.093.034c-.042 0-.085-.017-.051-.068a.178.178 0 0 1 .093-.059c.04 0 .068.034.051.093z" transform="translate(-326.591 -148.373)" style="fill:#c63e29"/>
                <path id="prefix__XMLID_534_" d="M448.385 228.7c.135.059.254.169.169.313-.1.178-.127.076-.1-.051.024-.11-.145-.143-.069-.262z" class="prefix__cls-111" transform="translate(-372.092 -135.925)"/>
                <path id="prefix__XMLID_533_" d="M453 234.268a.506.506 0 0 0 .068-.068c.025.119.051.246.068.364.008.042-.008.1-.059.076-.034-.017-.051-.085-.076-.127z" class="prefix__cls-138" transform="translate(-376.334 -140.959)"/>
                <path id="prefix__XMLID_532_" d="M438.6 225c0 .135-.009.271-.009.406-.221-.135-.06-.271.009-.406z" transform="translate(-363.042 -132.538)" style="fill:#ca3d2a"/>
                <path id="prefix__XMLID_531_" d="M241.759 234.115a3.014 3.014 0 0 1 .025-.915l1.059.1c.144.017.178.11.178.229-.059.508-.144.584-.644.593-.203-.007-.406-.007-.618-.007z" transform="translate(-182.961 -140.044)" style="fill:#fdf8f7"/>
                <path id="prefix__XMLID_530_" d="M236.372 212l.085.085c-.432.2-.906 0-1.346.144a6.745 6.745 0 0 0 1.431-.017c.186-.034.373-.085.339.212-.144-.008-.178.144-.288.178a2.631 2.631 0 0 1-1.05-.169c-.313 0-.339.119-.152.347.059.076.042.093-.042.144-.237.152-.279.322-.093.55a.243.243 0 0 1 .008.3c-.22.11-.178-.051-.169-.169-.034-.119-.212-.178-.135-.33.2-.406-.076-.8-.025-1.194.48-.115.965.038 1.437-.081z" transform="translate(-176.726 -120.639)" style="fill:#c84131"/>
                <path id="prefix__XMLID_529_" d="M241.779 217.1c.347.051.728-.059 1.05.169.051.5-.025.593-.508.644-.169.017-.364-.085-.508.093-.059.017-.093.008-.059-.068a2.535 2.535 0 0 1 .025-.838z" transform="translate(-182.955 -125.307)" style="fill:#fcf5f2"/>
                <path id="prefix__XMLID_528_" d="M240.261 227c.017.025.042.042.059.068.152.119.085.161-.059.186l-.161-.237c.051-.009.11-.009.161-.017z" class="prefix__cls-89" transform="translate(-181.463 -134.369)"/>
                <path id="prefix__XMLID_527_" d="M255.078 233.389l-.178-.229c.076-.127.161-.144.262-.025.051.1-.017.169-.076.246z" transform="translate(-195.009 -139.911)" style="fill:#ce3a31"/>
                <path id="prefix__XMLID_526_" d="M258 217c.212.017.212.22.313.339-.195-.034-.237-.2-.313-.339z" transform="translate(-197.847 -125.216)" style="fill:#ca3e2b"/>
                <path id="prefix__XMLID_525_" d="M255.963 229.649a.154.154 0 0 1-.152.135c-.042.008-.1-.017-.076-.059a.369.369 0 0 1 .144-.135c.007-.009.058.042.084.059z" class="prefix__cls-133" transform="translate(-195.767 -136.739)"/>
                <path id="prefix__XMLID_524_" d="M257.2 234.246c.025-.085.051-.161.076-.246a.193.193 0 0 1 .068.254c-.044.059-.102.017-.144-.008z" transform="translate(-197.115 -140.776)" style="fill:#c3402c"/>
                <path id="prefix__XMLID_523_" d="M205.012 242.529v.339h-.212c-.5-.008-.533-.076-.279-.567.076.152-.093.381.085.432a.314.314 0 0 0 .406-.204z" transform="translate(-148.755 -148.373)" style="fill:#c83f2c"/>
                <path id="prefix__XMLID_522_" d="M205.2 234.2c.246.068.119.254.169.44-.228-.118-.05-.33-.169-.44z" class="prefix__cls-138" transform="translate(-149.518 -140.959)"/>
                <path id="prefix__XMLID_521_" d="M326.36 249.342h-1.16v-.042h1.16z" transform="translate(-259.356 -154.781)" style="fill:#c93c34"/>
                <path id="prefix__XMLID_520_" d="M288.039 218c-.288.449-.754.373-1.185.423-.229-.008-.254-.152-.246-.347.008-.508-.008-1.008-.017-1.516a.05.05 0 0 1-.025-.059c.008-.017.017-.025.025-.025v-.339c.008-.152.042-.237.246-.254.872-.059 1.126.1 1.38.931a1.207 1.207 0 0 1-.017.754c-.051.142-.11.286-.161.432z" transform="translate(-223.991 -124.181)" style="fill:#fefdfc"/>
                <path id="prefix__XMLID_519_" d="M305.9 227.754c.008-.254.008-.5.017-.754a.4.4 0 0 1 .119.3c.008.11-.127.271.127.237 0 .093.118.186.051.271-.136.174-.195-.114-.314-.054z" transform="translate(-241.691 -134.369)" style="fill:#c83d2c"/>
                <path id="prefix__XMLID_518_" d="M284.928 210.8c-.39.22-.821.008-1.219.135 0-.042-.009-.093-.009-.135z" class="prefix__cls-56" transform="translate(-221.371 -119.541)"/>
                <path id="prefix__XMLID_517_" d="M304.322 242.337c-.186.025-.313-.025-.322-.237.119.059.271.085.322.237z" transform="translate(-239.952 -148.19)" style="fill:#c93d2c"/>
                <path id="prefix__XMLID_516_" d="M444.2 314.07a.632.632 0 0 1 .415-.008c-.115.084-.229.059-.415.008z" transform="translate(-368.279 -214.029)" style="fill:#3595c8"/>
                <path id="prefix__XMLID_515_" d="M461.242 216v2.617h-.042V216z" transform="translate(-383.84 -124.3)" style="fill:#c5402b"/>
                <path id="prefix__XMLID_514_" d="M458.534 215.1v.779c-.008 0-.025.008-.034.008v-.771c.017-.008.025-.008.034-.016z" transform="translate(-381.368 -123.477)" style="fill:#c43e2c"/>
                <path id="prefix__XMLID_513_" d="M320 218.984V216.3a10.949 10.949 0 0 1 0 2.684z" transform="translate(-254.597 -124.575)" style="fill:#c7412b"/>
                <path id="prefix__XMLID_512_" d="M157 224.169a.28.28 0 0 1 .169-.169c.017.161.22.186.254.339-.025.093.1.178-.034.3-.089-.199-.16-.41-.389-.47z" class="prefix__cls-34" transform="translate(-105.4 -131.623)"/>
                <path id="prefix__XMLID_511_" d="M164.638 242c.008.093.017.195.017.288s.144.2-.008.288c-.017.008-.068.008-.076-.008a.368.368 0 0 1-.008-.313 2.247 2.247 0 0 0 .025-.237c.012-.01.033-.01.05-.018z" transform="translate(-112.292 -148.099)" style="fill:#c93c33"/>
                <path id="prefix__XMLID_510_" d="M282.551 217v2.532h-.051V217z" class="prefix__cls-13" transform="translate(-220.272 -125.216)"/>
                <path id="prefix__XMLID_509_" d="M284.7 223v.085c-.178.381-.008.788-.135 1.3-.025-.483-.051-.847-.068-1.211.003-.14.103-.166.203-.174z" class="prefix__cls-12" transform="translate(-222.103 -130.708)"/>
                <path id="prefix__XMLID_508_" d="M234.895 231c.076.034.017.212.169.169.288.423-.093.61-.364.915.144-.398-.093-.784.195-1.084z" class="prefix__cls-26" transform="translate(-176.52 -138.03)"/>
                <path id="prefix__XMLID_507_" d="M236.531 212a5.072 5.072 0 0 1-1.431.085c.025-.025.051-.059.076-.085z" class="prefix__cls-12" transform="translate(-176.886 -120.639)"/>
                <path id="prefix__XMLID_506_" d="M420.7 231.851c.135-.025-.254-.4.161-.246.051.11.178.195.085.339-.146.161-.157-.059-.246-.093z" class="prefix__cls-76" transform="translate(-346.739 -138.551)"/>
                <path id="prefix__XMLID_505_" d="M423.085 232.339c-.025-.11-.059-.229-.085-.339h.085c.025.059.059.11.085.169a.172.172 0 0 1-.085.17z" transform="translate(-348.875 -138.946)" style="fill:#ce3b36"/>
                <path id="prefix__XMLID_504_" d="M241.1 249.3h.821a1.5 1.5 0 0 1-.821 0z" transform="translate(-182.378 -154.781)" style="fill:#c83c34"/>
                <path id="prefix__XMLID_503_" d="M238.541 244.5c-.025.034-.051.059-.068.085a1.576 1.576 0 0 1-.085-.169c-.008-.042.034-.085.076-.051a.406.406 0 0 1 .077.135z" class="prefix__cls-22" transform="translate(-179.895 -150.254)"/>
                <path id="prefix__XMLID_502_" d="M80.169 257v.254a12.885 12.885 0 0 0 0 2.286v.085c-.025.152.076.339-.169.474v-2.9a.176.176 0 0 1 .169-.199z" class="prefix__cls-4" transform="translate(-34.92 -161.829)"/>
                <path id="prefix__XMLID_501_" d="M371.452 215.6c.051.22.161.33.1.5-.184-.1-.261-.221-.1-.5z" class="prefix__cls-84" transform="translate(-301.612 -123.934)"/>
                <path id="prefix__XMLID_499_" d="M357 228.371a.321.321 0 0 1 .356-.135.374.374 0 0 1-.356.135z" class="prefix__cls-28" transform="translate(-288.464 -135.486)"/>
                <path id="prefix__XMLID_498_" d="M80.867 262.286c-.169-.237-.085-.517-.076-.771a4.548 4.548 0 0 1 .076-1.515z" class="prefix__cls-13" transform="translate(-35.618 -164.575)"/>
            </g>
        </g>
    </g>
</svg>
